<?xml version="1.0" encoding="UTF-8"?>
<svg version="1.1" xmlns="http://www.w3.org/2000/svg" width="233" height="136">
<path d="M0 0 C76.89 0 153.78 0 233 0 C233 44.88 233 89.76 233 136 C156.11 136 79.22 136 0 136 C0 91.12 0 46.24 0 0 Z M108 12 C106.98655518 13.46010498 106.98655518 13.46010498 105.95263672 14.94970703 C101.71593574 19.14570756 96.74810441 18.7898723 91.10501099 18.83224487 C89.65594092 18.82369654 88.20687458 18.81449563 86.7578125 18.8046875 C85.26420963 18.81594557 83.77062444 18.8298297 82.27706909 18.84622192 C78.36094716 18.88218943 74.44560701 18.8826427 70.52935791 18.87554932 C66.52724308 18.87463497 62.525419 18.90751527 58.5234375 18.9375 C50.68211684 18.99129613 42.84150417 19.0044263 35 19 C35 23.95 35 28.9 35 34 C30.05 34 25.1 34 20 34 C20 56.44 20 78.88 20 102 C24.95 102 29.9 102 35 102 C35 106.95 35 111.9 35 117 C36.96267822 116.99887207 38.92535645 116.99774414 40.94750977 116.99658203 C47.44970223 116.99985923 53.95131052 117.03075536 60.45330906 117.0802784 C64.3935931 117.10928761 68.33328427 117.12738522 72.27368164 117.12011719 C76.08020723 117.11350471 79.88556327 117.13611508 83.69184685 117.17855453 C85.14017508 117.1896521 86.58862241 117.19041605 88.03695869 117.18042374 C100.80307463 117.10367389 100.80307463 117.10367389 105.44506836 121.05029297 C106.2881958 122.02369629 107.13132324 122.99709961 108 124 C111.40212299 122.38617243 114.10324519 120.41396234 117 118 C117.38671875 118.44472656 117.7734375 118.88945313 118.171875 119.34765625 C118.69265625 119.91355469 119.2134375 120.47945313 119.75 121.0625 C120.26046875 121.63097656 120.7709375 122.19945313 121.296875 122.78515625 C122.907864 124.18370434 122.907864 124.18370434 124.890625 123.99609375 C127.24923373 123.05296021 127.24923373 123.05296021 129.21769714 120.47895813 C132.62084582 117.44684282 134.13239587 117.36635337 138.6262207 117.34057617 C139.27068649 117.33009247 139.91515228 117.31960876 140.57914734 117.30880737 C142.6951879 117.2801586 144.80958232 117.2863356 146.92578125 117.29296875 C148.39839213 117.27984728 149.87098503 117.26454166 151.34355164 117.24714661 C155.20860305 117.20733498 159.07318326 117.19710876 162.93841553 117.19311523 C166.88682311 117.18377638 170.83495468 117.14635825 174.78320312 117.11132812 C182.52218642 117.04679122 190.26073664 117.01611622 198 117 C198 112.05 198 107.1 198 102 C202.95 102 207.9 102 213 102 C213 79.56 213 57.12 213 34 C208.05 34 203.1 34 198 34 C198 29.05 198 24.1 198 19 C195.01054321 19.00169189 195.01054321 19.00169189 191.96069336 19.00341797 C185.35871993 19.00014099 178.75732193 18.96924754 172.15553951 18.9197216 C168.1547237 18.89071038 164.1544919 18.87261547 160.15356445 18.87988281 C156.28869118 18.88649446 152.42497003 18.86388938 148.56033516 18.82144547 C147.0896776 18.81034647 145.61890273 18.80958524 144.14823723 18.81957626 C131.18383352 18.89632611 131.18383352 18.89632611 126.54125977 14.94970703 C125.70264404 13.97630371 124.86402832 13.00290039 124 12 C123.36723145 12.70467407 123.36723145 12.70467407 122.72167969 13.42358398 C119.703125 16.78515625 119.703125 16.78515625 118 18 C113.62591072 17.65827427 111.15072457 14.79268769 108 12 Z " fill="#E6BC7B" transform="translate(0,0)"/>
<path d="M0 0 C1.65 0 3.3 0 5 0 C5 22.44 5 44.88 5 68 C3.35 68 1.7 68 0 68 C0 45.56 0 23.12 0 0 Z " fill="#000000" transform="translate(224,34)"/>
<path d="M0 0 C1.65 0 3.3 0 5 0 C5 22.44 5 44.88 5 68 C3.35 68 1.7 68 0 68 C0 45.56 0 23.12 0 0 Z " fill="#000000" transform="translate(217,34)"/>
<path d="M0 0 C1.65 0 3.3 0 5 0 C5 22.44 5 44.88 5 68 C3.35 68 1.7 68 0 68 C0 45.56 0 23.12 0 0 Z " fill="#000000" transform="translate(11,34)"/>
<path d="M0 0 C1.65 0 3.3 0 5 0 C5 22.44 5 44.88 5 68 C3.35 68 1.7 68 0 68 C0 45.56 0 23.12 0 0 Z " fill="#000000" transform="translate(4,34)"/>
<path d="M0 0 C1.12807068 0.01110306 2.25614136 0.02220612 3.418396 0.03364563 C4.699422 0.03402328 5.980448 0.03440094 7.30029297 0.03479004 C8.69351171 0.06032146 10.08672049 0.08640141 11.47991943 0.11299133 C12.90908572 0.12232091 14.33826804 0.12943635 15.76745605 0.13442993 C19.52272971 0.15348903 23.27703101 0.20257827 27.03192139 0.25794983 C30.8660161 0.3091671 34.70026848 0.33194913 38.53460693 0.35713196 C46.05327862 0.41069993 53.57115011 0.49599717 61.08929443 0.60127258 C61.08929443 2.25127258 61.08929443 3.90127258 61.08929443 5.60127258 C38.64929443 5.60127258 16.20929443 5.60127258 -6.91070557 5.60127258 C-2.91070557 0.60127258 -2.91070557 0.60127258 0 0 Z " fill="#000000" transform="translate(136.91070556640625,120.39872741699219)"/>
<path d="M0 0 C8.27539035 -0.11587901 16.55044147 -0.20470646 24.82644272 -0.25906086 C28.66941749 -0.28514926 32.511837 -0.32053148 36.35449219 -0.37719727 C40.06333109 -0.43154711 43.77163618 -0.46142624 47.48084259 -0.47438622 C48.89549413 -0.48362104 50.31011661 -0.50165527 51.72454071 -0.52865028 C53.70636979 -0.56496828 55.6887367 -0.5670426 57.67089844 -0.56762695 C58.79896912 -0.57873001 59.92703979 -0.58983307 61.08929443 -0.60127258 C64 0 64 0 68 5 C45.56 5 23.12 5 0 5 C0 3.35 0 1.7 0 0 Z " fill="#000000" transform="translate(35,121)"/>
<path d="M0 0 C22.44 0 44.88 0 68 0 C68 1.32 68 2.64 68 4 C59.57692152 4.09263459 51.15405544 4.16373109 42.73059368 4.20724869 C38.81931774 4.22813388 34.90838998 4.25646759 30.99731445 4.30175781 C27.22366217 4.34518376 23.45034502 4.36913009 19.67646217 4.37950897 C18.23589615 4.38690633 16.7953487 4.40135173 15.35492516 4.42292023 C13.33925604 4.45190497 11.32325049 4.45363347 9.30737305 4.45410156 C8.15931686 4.46298401 7.01126068 4.47186646 5.82841492 4.48101807 C3 4 3 4 0 0 Z " fill="#000000" transform="translate(130,128)"/>
<path d="M0 0 C22.44 0 44.88 0 68 0 C65 4 65 4 62.17158508 4.48101807 C61.0235289 4.47213562 59.87547272 4.46325317 58.69262695 4.45410156 C57.39150467 4.45379944 56.09038239 4.45349731 54.74983215 4.45318604 C53.32930898 4.43275932 51.90879204 4.41189533 50.48828125 4.390625 C49.0352608 4.38316369 47.58223028 4.37747024 46.12919617 4.37347412 C42.30667285 4.35820878 38.48475847 4.3189202 34.66247559 4.2746582 C30.76139565 4.23372432 26.86021722 4.21546719 22.95898438 4.1953125 C15.30571211 4.15242596 7.65294141 4.08416485 0 4 C0 2.68 0 1.36 0 0 Z " fill="#000000" transform="translate(35,128)"/>
<path d="M0 0 C1.14805618 0.00888245 2.29611237 0.01776489 3.47895813 0.0269165 C4.78008041 0.02721863 6.0812027 0.02752075 7.42175293 0.02783203 C8.8422761 0.04825875 10.26279304 0.06912273 11.68330383 0.09039307 C13.13632428 0.09785437 14.5893548 0.10354783 16.04238892 0.10754395 C19.86491223 0.12280929 23.68682661 0.16209786 27.5091095 0.20635986 C31.41018943 0.24729374 35.31136787 0.26555087 39.21260071 0.28570557 C46.86587297 0.3285921 54.51864367 0.39685322 62.17158508 0.48101807 C62.17158508 1.80101807 62.17158508 3.12101807 62.17158508 4.48101807 C39.73158508 4.48101807 17.29158508 4.48101807 -5.82841492 4.48101807 C-2.82841492 0.48101807 -2.82841492 0.48101807 0 0 Z " fill="#000000" transform="translate(135.8284149169922,3.51898193359375)"/>
<path d="M0 0 C8.42307848 -0.09263459 16.84594456 -0.16373109 25.26940632 -0.20724869 C29.18068226 -0.22813388 33.09161002 -0.25646759 37.00268555 -0.30175781 C40.77633783 -0.34518376 44.54965498 -0.36913009 48.32353783 -0.37950897 C49.76410385 -0.38690633 51.2046513 -0.40135173 52.64507484 -0.42292023 C54.66074396 -0.45190497 56.67674951 -0.45363347 58.69262695 -0.45410156 C59.84068314 -0.46298401 60.98873932 -0.47186646 62.17158508 -0.48101807 C65 -0 65 -0 68 4 C45.56 4 23.12 4 0 4 C0 2.68 0 1.36 0 0 Z " fill="#000000" transform="translate(35,4)"/>
<path d="M0 0 C22.11 0 44.22 0 67 0 C67 1.32 67 2.64 67 4 C58.70730622 4.09263761 50.41482823 4.16373258 42.12174511 4.20724869 C38.27100043 4.22813325 34.42060945 4.25646573 30.57006836 4.30175781 C26.85477022 4.34518613 23.13981251 4.36913056 19.42428017 4.37950897 C18.00604199 4.38690591 16.58782267 4.40135052 15.16972923 4.42292023 C13.18519603 4.45190802 11.20032102 4.4536335 9.21557617 4.45410156 C7.52013924 4.46742523 7.52013924 4.46742523 5.79045105 4.48101807 C3 4 3 4 0 0 Z " fill="#000000" transform="translate(131,11)"/>
<path d="M0 0 C22.11 0 44.22 0 67 0 C64 4 64 4 61.20954895 4.48101807 C60.07925766 4.47213562 58.94896637 4.46325317 57.78442383 4.45410156 C56.5033223 4.45379944 55.22222076 4.45349731 53.90229797 4.45318604 C52.50386943 4.43275939 51.10544721 4.4118954 49.70703125 4.390625 C48.27643117 4.38316359 46.84582086 4.37747018 45.41520691 4.37347412 C41.65186285 4.35820957 37.88913742 4.31892176 34.1260376 4.2746582 C30.28528207 4.23372257 26.44442647 4.21546682 22.60351562 4.1953125 C15.06872855 4.15242737 7.53445099 4.08416728 0 4 C0 2.68 0 1.36 0 0 Z " fill="#000000" transform="translate(35,11)"/>
<path d="M0 0 C20.13 0 40.26 0 61 0 C61 0.99 61 1.98 61 3 C40.87 3 20.74 3 0 3 C0 2.01 0 1.02 0 0 Z " fill="#BB7239" transform="translate(137,8)"/>
<path d="M0 0 C5.28 0 10.56 0 16 0 C16 3.63 16 7.26 16 11 C10.72 11 5.44 11 0 11 C0 7.37 0 3.74 0 0 Z " fill="#000000" transform="translate(217,19)"/>
<path d="M0 0 C5.28 0 10.56 0 16 0 C16 3.63 16 7.26 16 11 C10.72 11 5.44 11 0 11 C0 7.37 0 3.74 0 0 Z " fill="#000000" transform="translate(0,19)"/>
<path d="M0 0 C3.63 0 7.26 0 11 0 C11 4.95 11 9.9 11 15 C7.37 15 3.74 15 0 15 C0 10.05 0 5.1 0 0 Z " fill="#000000" transform="translate(202,121)"/>
<path d="M0 0 C3.63 0 7.26 0 11 0 C11 4.95 11 9.9 11 15 C7.37 15 3.74 15 0 15 C0 10.05 0 5.1 0 0 Z " fill="#000000" transform="translate(20,121)"/>
<path d="M0 0 C3.63 0 7.26 0 11 0 C11 4.95 11 9.9 11 15 C7.37 15 3.74 15 0 15 C0 10.05 0 5.1 0 0 Z " fill="#000000" transform="translate(202,0)"/>
<path d="M0 0 C15.51 0 31.02 0 47 0 C46.67 0.99 46.34 1.98 46 3 C30.82 3 15.64 3 0 3 C0 2.01 0 1.02 0 0 Z " fill="#EAC27F" transform="translate(57,8)"/>
<path d="M0 0 C3.96 0 7.92 0 12 0 C12 3.63 12 7.26 12 11 C8.04 11 4.08 11 0 11 C0 7.37 0 3.74 0 0 Z " fill="#000000" transform="translate(217,121)"/>
<path d="M0 0 C3.96 0 7.92 0 12 0 C12 3.63 12 7.26 12 11 C8.04 11 4.08 11 0 11 C0 7.37 0 3.74 0 0 Z " fill="#000000" transform="translate(4,121)"/>
<path d="M0 0 C3.96 0 7.92 0 12 0 C12 3.63 12 7.26 12 11 C8.04 11 4.08 11 0 11 C0 7.37 0 3.74 0 0 Z " fill="#000000" transform="translate(217,4)"/>
<path d="M0 0 C3.96 0 7.92 0 12 0 C12 3.63 12 7.26 12 11 C8.04 11 4.08 11 0 11 C0 7.37 0 3.74 0 0 Z " fill="#000000" transform="translate(4,4)"/>
<path d="M0 0 C2.97 0 5.94 0 9 0 C9 3.63 9 7.26 9 11 C3.72 11 -1.56 11 -7 11 C-7 9.68 -7 8.36 -7 7 C-4.69 7 -2.38 7 0 7 C0 4.69 0 2.38 0 0 Z " fill="#000000" transform="translate(224,106)"/>
<path d="M0 0 C2.97 0 5.94 0 9 0 C9 2.31 9 4.62 9 7 C11.31 7 13.62 7 16 7 C16 8.32 16 9.64 16 11 C10.72 11 5.44 11 0 11 C0 7.37 0 3.74 0 0 Z " fill="#000000" transform="translate(0,106)"/>
<path d="M0 0 C3.63 0 7.26 0 11 0 C11 3.63 11 7.26 11 11 C7.37 11 3.74 11 0 11 C0 7.37 0 3.74 0 0 Z " fill="#000000" transform="translate(202,106)"/>
<path d="M0 0 C3.63 0 7.26 0 11 0 C11 3.63 11 7.26 11 11 C7.37 11 3.74 11 0 11 C0 7.37 0 3.74 0 0 Z " fill="#000000" transform="translate(20,106)"/>
<path d="M0 0 C3.63 0 7.26 0 11 0 C11 3.63 11 7.26 11 11 C7.37 11 3.74 11 0 11 C0 7.37 0 3.74 0 0 Z " fill="#000000" transform="translate(202,19)"/>
<path d="M0 0 C3.63 0 7.26 0 11 0 C11 2.64 11 5.28 11 8 C8.69 8 6.38 8 4 8 C4 10.31 4 12.62 4 15 C2.68 15 1.36 15 0 15 C0 10.05 0 5.1 0 0 Z " fill="#000000" transform="translate(20,0)"/>
<path d="M0 0 C1.32 0 2.64 0 4 0 C4 3.63 4 7.26 4 11 C0.37 11 -3.26 11 -7 11 C-7 9.68 -7 8.36 -7 7 C-4.69 7 -2.38 7 0 7 C0 4.69 0 2.38 0 0 Z " fill="#000000" transform="translate(27,19)"/>
<path d="M0 0 C7.26 0 14.52 0 22 0 C22 0.99 22 1.98 22 3 C14.74 3 7.48 3 0 3 C0 2.01 0 1.02 0 0 Z " fill="#D08B4B" transform="translate(35,8)"/>
<path d="M0 0 C2.31 0 4.62 0 7 0 C7 2.31 7 4.62 7 7 C4.69 7 2.38 7 0 7 C0 4.69 0 2.38 0 0 Z " fill="#BB7239" transform="translate(202,121)"/>
<path d="M0 0 C2.31 0 4.62 0 7 0 C7 2.31 7 4.62 7 7 C4.69 7 2.38 7 0 7 C0 4.69 0 2.38 0 0 Z " fill="#D08A4A" transform="translate(24,121)"/>
<path d="M0 0 C2.31 0 4.62 0 7 0 C7 2.31 7 4.62 7 7 C4.69 7 2.38 7 0 7 C0 4.69 0 2.38 0 0 Z " fill="#BB7239" transform="translate(217,23)"/>
<path d="M0 0 C2.31 0 4.62 0 7 0 C7 2.31 7 4.62 7 7 C4.69 7 2.38 7 0 7 C0 4.69 0 2.38 0 0 Z " fill="#D08A4A" transform="translate(9,23)"/>
<path d="M0 0 C2.31 0 4.62 0 7 0 C7 2.31 7 4.62 7 7 C4.69 7 2.38 7 0 7 C0 4.69 0 2.38 0 0 Z " fill="#7D4C26" transform="translate(206,19)"/>
<path d="M0 0 C2.31 0 4.62 0 7 0 C7 2.31 7 4.62 7 7 C4.69 7 2.38 7 0 7 C0 4.69 0 2.38 0 0 Z " fill="#8C5C31" transform="translate(20,19)"/>
<path d="M0 0 C2.31 0 4.62 0 7 0 C7 2.31 7 4.62 7 7 C4.69 7 2.38 7 0 7 C0 4.69 0 2.38 0 0 Z " fill="#7D4C26" transform="translate(202,8)"/>
<path d="M0 0 C2.31 0 4.62 0 7 0 C7 2.31 7 4.62 7 7 C4.69 7 2.38 7 0 7 C0 4.69 0 2.38 0 0 Z " fill="#8C5C31" transform="translate(24,8)"/>
<path d="M0 0 C4.29 0 8.58 0 13 0 C11.02 2.31 9.04 4.62 7 7 C1.53125 2.41015625 1.53125 2.41015625 0 1 C0 0.67 0 0.34 0 0 Z " fill="#000000" transform="translate(118,0)"/>
<path d="M0 0 C4.29 0 8.58 0 13 0 C11.02 2.31 9.04 4.62 7 7 C1.53125 2.41015625 1.53125 2.41015625 0 1 C0 0.67 0 0.34 0 0 Z " fill="#000000" transform="translate(102,0)"/>
<path d="M0 0 C3.71860179 1.53873177 4.35633541 2.47511388 7 6 C3.04 6 -0.92 6 -5 6 C-3.35 4.02 -1.7 2.04 0 0 Z " fill="#000000" transform="translate(124,130)"/>
<path d="M0 0 C3.71860179 1.53873177 4.35633541 2.47511388 7 6 C3.04 6 -0.92 6 -5 6 C-3.35 4.02 -1.7 2.04 0 0 Z " fill="#000000" transform="translate(107,130)"/>
<path d="M0 0 C2.31 0 4.62 0 7 0 C7 1.98 7 3.96 7 6 C4.69 6 2.38 6 0 6 C0 4.02 0 2.04 0 0 Z " fill="#734623" transform="translate(206,111)"/>
<path d="M0 0 C2.31 0 4.62 0 7 0 C7 1.98 7 3.96 7 6 C4.69 6 2.38 6 0 6 C0 4.02 0 2.04 0 0 Z " fill="#80552D" transform="translate(20,111)"/>
<path d="M0 0 C1.32 0.99 2.64 1.98 4 3 C3.34 4.32 2.68 5.64 2 7 C1.01 7 0.02 7 -1 7 C-1.66 5.68 -2.32 4.36 -3 3 C-2.01 2.01 -1.02 1.02 0 0 Z " fill="#000000" transform="translate(116,123)"/>
<path d="M0 0 C1.32 0.99 2.64 1.98 4 3 C3.34 4.32 2.68 5.64 2 7 C1.01 7 0.02 7 -1 7 C-1.66 5.68 -2.32 4.36 -3 3 C-2.01 2.01 -1.02 1.02 0 0 Z " fill="#000000" transform="translate(116,5)"/>
<path d="M0 0 C1.65 0 3.3 0 5 0 C5 1.65 5 3.3 5 5 C3.35 5 1.7 5 0 5 C0 3.35 0 1.7 0 0 Z " fill="#000000" transform="translate(217,106)"/>
<path d="M0 0 C1.65 0 3.3 0 5 0 C5 1.65 5 3.3 5 5 C3.35 5 1.7 5 0 5 C0 3.35 0 1.7 0 0 Z " fill="#000000" transform="translate(11,106)"/>
<path d="M0 0 C0.66 0 1.32 0 2 0 C2 2.31 2 4.62 2 7 C-0.31 7 -2.62 7 -5 7 C-5 6.34 -5 5.68 -5 5 C-3.35 5 -1.7 5 0 5 C0 3.35 0 1.7 0 0 Z " fill="#BB7239" transform="translate(222,106)"/>
<path d="M0 0 C0.66 0 1.32 0 2 0 C2 1.65 2 3.3 2 5 C3.65 5 5.3 5 7 5 C7 5.66 7 6.32 7 7 C4.69 7 2.38 7 0 7 C0 4.69 0 2.38 0 0 Z " fill="#D08A4A" transform="translate(9,106)"/>
<path d="M0 0 C2.64 0 5.28 0 8 0 C8 0.99 8 1.98 8 3 C5.36 3 2.72 3 0 3 C0 2.01 0 1.02 0 0 Z " fill="#CB9156" transform="translate(137,8)"/>
<path d="M0 0 C1.32 0 2.64 0 4 0 C4 1.65 4 3.3 4 5 C2.68 5 1.36 5 0 5 C0 3.35 0 1.7 0 0 Z " fill="#000000" transform="translate(202,121)"/>
<path d="M0 0 C1.32 0 2.64 0 4 0 C4 1.65 4 3.3 4 5 C2.68 5 1.36 5 0 5 C0 3.35 0 1.7 0 0 Z " fill="#000000" transform="translate(27,121)"/>
<path d="M0 0 C1.65 0 3.3 0 5 0 C5 1.32 5 2.64 5 4 C3.35 4 1.7 4 0 4 C0 2.68 0 1.36 0 0 Z " fill="#000000" transform="translate(217,26)"/>
<path d="M0 0 C1.65 0 3.3 0 5 0 C5 1.32 5 2.64 5 4 C3.35 4 1.7 4 0 4 C0 2.68 0 1.36 0 0 Z " fill="#000000" transform="translate(11,26)"/>
</svg>
