<?xml version="1.0" encoding="UTF-8"?>
<svg version="1.1" xmlns="http://www.w3.org/2000/svg" width="232" height="136">
<path d="M0 0 C76.56 0 153.12 0 232 0 C232 44.88 232 89.76 232 136 C155.44 136 78.88 136 0 136 C0 91.12 0 46.24 0 0 Z M25.17214966 14.35292053 C24.80698305 15.13985826 24.44181644 15.92679598 24.06558418 16.7375803 C21.33189903 22.54166716 15.4999892 25.29009007 10 28 C9.76797303 38.17893356 9.59045669 48.35723517 9.48187828 58.53827763 C9.4297554 63.26629805 9.3591069 67.99250555 9.24560547 72.71948242 C9.13668704 77.28432857 9.07710693 81.84743526 9.05122757 86.41348076 C9.03279479 88.15240303 8.99679479 89.8912333 8.94269943 91.6294117 C8.32778052 101.20708079 8.32778052 101.20708079 12.16973877 109.51852417 C14.76673166 111.40087475 14.76673166 111.40087475 17.5050354 112.69139099 C22.73860927 115.43640065 25.46422648 120.85705091 28 126 C50.69601812 126.2336369 73.3918379 126.40996041 96.08881474 126.51812172 C106.62757129 126.56967887 117.16558055 126.63996315 127.70385742 126.75439453 C136.8894478 126.85409 146.07449701 126.91858719 155.26061338 126.94088495 C160.12462481 126.95391915 164.98708812 126.98452925 169.8506031 127.05730057 C174.43030868 127.12526904 179.00783158 127.14609994 183.58799362 127.13107681 C185.26707139 127.13382417 186.94622337 127.15366972 188.62486458 127.19205475 C197.67542773 127.66590215 197.67542773 127.66590215 205.44457817 123.82047653 C207.32828143 121.22040386 207.32828143 121.22040386 208.65251827 118.4893856 C211.47222978 113.28015041 216.83778674 110.54527188 222 108 C222.20870479 97.80370104 222.36853048 87.6079115 222.46630955 77.4099102 C222.51324472 72.6741978 222.57687831 67.9399484 222.67895508 63.20507812 C222.77688639 58.63378712 222.83058528 54.06390114 222.85389519 49.491642 C222.87050109 47.74915568 222.9029322 46.00674476 222.95157051 44.26485825 C223.58610922 34.89157838 223.58610922 34.89157838 220.05514526 26.68658447 C217.7285964 25.05823141 217.7285964 25.05823141 215.2674408 24.02615356 C209.44337231 21.3904117 206.69219821 15.46404178 204 10 C181.28666271 9.78978273 158.57348573 9.63106272 135.85937309 9.53369045 C125.31281903 9.48727739 114.76686929 9.42399847 104.22070312 9.32104492 C95.02889739 9.23135563 85.83752927 9.17328001 76.64529812 9.15320355 C71.77753665 9.14146686 66.91102711 9.11387753 62.04366684 9.04842949 C57.46161149 8.98731717 52.88132288 8.96849894 48.2988987 8.98203087 C46.6178114 8.97955569 44.9366648 8.96166142 43.25592995 8.92715073 C32.85270591 8.32781258 32.85270591 8.32781258 25.17214966 14.35292053 Z " fill="#000000" transform="translate(0,0)"/>
<path d="M0 0 C76.56 0 153.12 0 232 0 C232 44.88 232 89.76 232 136 C155.44 136 78.88 136 0 136 C0 91.12 0 46.24 0 0 Z M23 4 C21.35 7.3 19.7 10.6 18 14 C13.45313009 18.74895302 10.56962145 19.53639196 4 22 C4 52.03 4 82.06 4 113 C7.96 114.98 11.92 116.96 16 119 C19.44300631 123.47590821 20.90113906 126.75284766 23 132 C84.71 132 146.42 132 210 132 C211.32 128.7 212.64 125.4 214 122 C218.79051225 117.0287137 221.32137633 115.86226729 228 113 C228 82.97 228 52.94 228 22 C223.545 20.02 223.545 20.02 219 18 C213.62649584 13.82060787 213.05817352 10.88089041 210 4 C148.29 4 86.58 4 23 4 Z " fill="#D08A4A" transform="translate(0,0)"/>
<path d="M0 0 C76.56 0 153.12 0 232 0 C232 9.24 232 18.48 232 28 C230.02 28.495 230.02 28.495 228 29 C228 26.69 228 24.38 228 22 C226.7625 21.938125 226.7625 21.938125 225.5 21.875 C220.0450393 20.51125983 215.77639558 17.62985938 212.6015625 12.9296875 C210.93969313 9.73559815 210 7.64351366 210 4 C148.29 4 86.58 4 23 4 C22.01 6.97 21.02 9.94 20 13 C18.09765625 15.33984375 18.09765625 15.33984375 16.0625 16.9375 C15.39347656 17.48277344 14.72445313 18.02804688 14.03515625 18.58984375 C10.36897463 21.13013466 8.58260962 22 4 22 C4 46.42 4 70.84 4 96 C2.68 96 1.36 96 0 96 C0 64.32 0 32.64 0 0 Z " fill="#ECC482" transform="translate(0,0)"/>
<path d="M0 0 C59.07 0 118.14 0 179 0 C180.98 3.63 182.96 7.26 185 11 C189.45807672 15.45807672 192.20383293 17.10191646 198 20 C198 47.39 198 74.78 198 103 C194.37 104.98 190.74 106.96 187 109 C183.9700264 112.51693364 181.70703756 115.37841591 179.87109661 119.58912945 C178 122 178 122 174.83534718 122.61523914 C173.518105 122.61063018 172.20086283 122.60602121 170.84370422 122.60127258 C169.7434255 122.60768077 169.7434255 122.60768077 168.62091893 122.61421841 C166.15592471 122.62247336 163.69262134 122.59492472 161.2277832 122.56762695 C159.46381673 122.56621701 157.69984733 122.56700741 155.93588257 122.56983948 C151.14050287 122.57127715 146.34574541 122.54183071 141.55051064 122.50696969 C136.54169616 122.47576457 131.53286824 122.47278007 126.52397156 122.46684265 C117.03599588 122.451287 107.54830742 122.41023523 98.06045836 122.3600952 C87.26015117 122.30425529 76.45983044 122.27672871 65.65941489 122.25161803 C43.43944946 122.19932089 21.21974281 122.11134516 -1 122 C-1.38599365 121.24654297 -1.7719873 120.49308594 -2.16967773 119.71679688 C-2.68989502 118.72744141 -3.2101123 117.73808594 -3.74609375 116.71875 C-4.2558374 115.73841797 -4.76558105 114.75808594 -5.29077148 113.74804688 C-8.24666275 108.99565264 -12.46777723 106.05412483 -17.5912323 103.92131042 C-20 102 -20 102 -20.60127258 98.48823547 C-20.61577871 97.00561326 -20.60244365 95.52256754 -20.56762695 94.0402832 C-20.56835709 93.23029877 -20.56908722 92.42031433 -20.56983948 91.58578491 C-20.56635417 88.90677058 -20.52745043 86.22949202 -20.48828125 83.55078125 C-20.47895643 81.6941981 -20.47183876 79.83760265 -20.46684265 77.98100281 C-20.4477467 73.09310978 -20.39862361 68.20595901 -20.34332275 63.31835938 C-20.2921862 58.33148236 -20.26934058 53.34448547 -20.24414062 48.35742188 C-20.19050732 38.57128836 -20.10516316 28.78570589 -20 19 C-19.24654297 18.60748047 -18.49308594 18.21496094 -17.71679688 17.81054688 C-16.72744141 17.28525391 -15.73808594 16.75996094 -14.71875 16.21875 C-13.73841797 15.70248047 -12.75808594 15.18621094 -11.74804688 14.65429688 C-5.63452899 10.97401994 -3.15719665 6.3143933 0 0 Z M-1.82785034 7.35292053 C-2.19301695 8.13985826 -2.55818356 8.92679598 -2.93441582 9.7375803 C-5.66810097 15.54166716 -11.5000108 18.29009007 -17 21 C-17.23202697 31.17893356 -17.40954331 41.35723517 -17.51812172 51.53827763 C-17.5702446 56.26629805 -17.6408931 60.99250555 -17.75439453 65.71948242 C-17.86331296 70.28432857 -17.92289307 74.84743526 -17.94877243 79.41348076 C-17.96720521 81.15240303 -18.00320521 82.8912333 -18.05730057 84.6294117 C-18.67221948 94.20708079 -18.67221948 94.20708079 -14.83026123 102.51852417 C-12.23326834 104.40087475 -12.23326834 104.40087475 -9.4949646 105.69139099 C-4.26139073 108.43640065 -1.53577352 113.85705091 1 119 C23.69601812 119.2336369 46.3918379 119.40996041 69.08881474 119.51812172 C79.62757129 119.56967887 90.16558055 119.63996315 100.70385742 119.75439453 C109.8894478 119.85409 119.07449701 119.91858719 128.26061338 119.94088495 C133.12462481 119.95391915 137.98708812 119.98452925 142.8506031 120.05730057 C147.43030868 120.12526904 152.00783158 120.14609994 156.58799362 120.13107681 C158.26707139 120.13382417 159.94622337 120.15366972 161.62486458 120.19205475 C170.67542773 120.66590215 170.67542773 120.66590215 178.44457817 116.82047653 C180.32828143 114.22040386 180.32828143 114.22040386 181.65251827 111.4893856 C184.47222978 106.28015041 189.83778674 103.54527188 195 101 C195.20870479 90.80370104 195.36853048 80.6079115 195.46630955 70.4099102 C195.51324472 65.6741978 195.57687831 60.9399484 195.67895508 56.20507812 C195.77688639 51.63378712 195.83058528 47.06390114 195.85389519 42.491642 C195.87050109 40.74915568 195.9029322 39.00674476 195.95157051 37.26485825 C196.58610922 27.89157838 196.58610922 27.89157838 193.05514526 19.68658447 C190.7285964 18.05823141 190.7285964 18.05823141 188.2674408 17.02615356 C182.44337231 14.3904117 179.69219821 8.46404178 177 3 C154.28666271 2.78978273 131.57348573 2.63106272 108.85937309 2.53369045 C98.31281903 2.48727739 87.76686929 2.42399847 77.22070312 2.32104492 C68.02889739 2.23135563 58.83752927 2.17328001 49.64529812 2.15320355 C44.77753665 2.14146686 39.91102711 2.11387753 35.04366684 2.04842949 C30.46161149 1.98731717 25.88132288 1.96849894 21.2988987 1.98203087 C19.6178114 1.97955569 17.9366648 1.96166142 16.25592995 1.92715073 C5.85270591 1.32781258 5.85270591 1.32781258 -1.82785034 7.35292053 Z " fill="#D08A4A" transform="translate(27,7)"/>
<path d="M0 0 C34.32 0 68.64 0 104 0 C105.98 3.63 107.96 7.26 110 11 C114.45807672 15.45807672 117.20383293 17.10191646 123 20 C123 40.13 123 60.26 123 81 C121.515 80.505 121.515 80.505 120 80 C120.00785522 78.92671196 120.00785522 78.92671196 120.01586914 77.83174133 C120.05820663 71.07820795 120.06216563 64.32585919 120.02334595 57.57227802 C120.0047334 54.10022719 120.00080161 50.62946912 120.03076172 47.1574707 C120.06458284 43.16266649 120.03393699 39.17058865 120 35.17578125 C120.0194165 33.93290848 120.03883301 32.69003571 120.05883789 31.40950012 C120.16542053 25.24145647 120.16542053 25.24145647 117.23117065 20.14607239 C115.19898201 18.87888828 113.19660667 17.94111563 111 17 C108.7578125 14.97265625 108.7578125 14.97265625 107.125 13.0625 C106.57070312 12.43472656 106.01640625 11.80695312 105.4453125 11.16015625 C103.708791 8.56476061 102.94139653 5.96491903 102 3 C100.75163361 3.00666183 99.50326721 3.01332367 98.21707153 3.02018738 C86.47423801 3.0809021 74.73143617 3.1259262 62.98848152 3.15543652 C56.95075076 3.17111788 50.91314632 3.19240122 44.87548828 3.22631836 C39.05296455 3.25882368 33.23056261 3.27683438 27.40795517 3.28463173 C25.1823014 3.29019114 22.95665457 3.3010467 20.7310524 3.31719017 C17.62279912 3.33884702 14.5150544 3.34197185 11.40673828 3.34057617 C10.47885498 3.351362 9.55097168 3.36214783 8.5949707 3.3732605 C7.75080597 3.36913651 6.90664124 3.36501251 6.03689575 3.36076355 C4.93350955 3.36491162 4.93350955 3.36491162 3.80783272 3.36914349 C2 3 2 3 0 0 Z " fill="#BB7239" transform="translate(102,7)"/>
<path d="M0 0 C-1.22622237 6.28438967 -5.04226191 9.37056155 -10 13 C-13.13186168 14.87667976 -14.12576541 15 -18 15 C-18 39.42 -18 63.84 -18 89 C-19.32 89 -20.64 89 -22 89 C-22 63.26 -22 37.52 -22 11 C-19.36 10.34 -16.72 9.68 -14 9 C-10.55893041 7.04331337 -8.08065468 5.08253037 -5.3125 2.25 C-3 0 -3 0 0 0 Z " fill="#EDC785" transform="translate(22,7)"/>
<path d="M0 0 C6.27 0 12.54 0 19 0 C18.03891357 6.72760503 17.44573988 10.20814253 12.16796875 14.484375 C7.52066728 17.64773891 6.09281974 18 0 18 C0 12.06 0 6.12 0 0 Z " fill="#BB7239" transform="translate(0,0)"/>
<path d="M0 0 C9.74419823 -0.06941478 19.48833795 -0.12276776 29.23273277 -0.15543652 C33.75713184 -0.17111343 38.28136214 -0.19238839 42.80566406 -0.22631836 C47.16932465 -0.25883996 51.53282261 -0.27683774 55.896595 -0.28463173 C57.56403795 -0.29018824 59.23147169 -0.30103834 60.89884567 -0.31719017 C63.22882289 -0.33886932 65.55812227 -0.34197101 67.88818359 -0.34057617 C68.58229843 -0.351362 69.27641327 -0.36214783 69.99156189 -0.3732605 C71.91220093 -0.36076355 71.91220093 -0.36076355 75 0 C75.99 1.485 75.99 1.485 77 3 C75.60058418 3.00546844 75.60058418 3.00546844 74.17289734 3.01104736 C65.38808489 3.04796131 56.60362415 3.10569402 47.8190794 3.18390274 C43.30262977 3.22344102 38.78637696 3.25559812 34.26977539 3.27099609 C29.91235059 3.28612116 25.55546666 3.32049188 21.19828224 3.36830902 C19.53453073 3.38316588 17.87070202 3.39104347 16.20688438 3.39188385 C13.87911438 3.39424247 11.5528527 3.42122929 9.2253418 3.45410156 C8.53482224 3.4490712 7.84430267 3.44404083 7.13285828 3.43885803 C3.83496838 3.51109349 2.38273867 3.60107486 0.04841614 6.03411865 C-0.29756119 6.6828595 -0.64353851 7.33160034 -1 8 C-1.66 7.34 -2.32 6.68 -3 6 C-2.01 4.02 -1.02 2.04 0 0 Z " fill="#F5DA96" transform="translate(27,7)"/>
<path d="M0 0 C4.62 0 9.24 0 14 0 C14 4.62 14 9.24 14 14 C6.36363636 12.72727273 6.36363636 12.72727273 3 10 C1.17179136 6.46966608 0 3.98919362 0 0 Z " fill="#F4D691" transform="translate(217,1)"/>
<path d="M0 0 C0 4.29 0 8.58 0 13 C-4.62 13 -9.24 13 -14 13 C-13.04812889 7.28877334 -12.77878972 5.88675514 -9 2 C-5.63468756 -0.27972778 -4.42133504 0 0 0 Z " fill="#D08A4A" transform="translate(231,121)"/>
<path d="M0 0 C0.99 0.33 1.98 0.66 3 1 C3 8.26 3 15.52 3 23 C0.463125 24.2375 0.463125 24.2375 -2.125 25.5 C-7.68666583 28.51673905 -10.67125799 31.72949182 -14 37 C-14.99025771 38.34058474 -15.9878016 39.67590326 -17 41 C-17.66 40.01 -18.32 39.02 -19 38 C-13.84032925 29.49504822 -9.59630881 24.1987696 0 21 C0 14.07 0 7.14 0 0 Z " fill="#E6AF6C" transform="translate(222,87)"/>
<path d="M0 0 C11.88 0 23.76 0 36 0 C31.39606123 3.06929251 28.74531243 4.25250319 23.140625 4.1953125 C22.02558594 4.18886719 20.91054688 4.18242188 19.76171875 4.17578125 C18.60285156 4.15902344 17.44398437 4.14226563 16.25 4.125 C15.07566406 4.11597656 13.90132812 4.10695313 12.69140625 4.09765625 C9.79406464 4.07410063 6.89713559 4.04120652 4 4 C3.67 4.99 3.34 5.98 3 7 C1.35 7.33 -0.3 7.66 -2 8 C-1.34 5.36 -0.68 2.72 0 0 Z " fill="#C38147" transform="translate(19,0)"/>
<path d="M0 0 C4.14030433 0.24354731 6.5031277 0.63274656 9.875 3.125 C12.36725344 6.4968723 12.75645269 8.85969567 13 13 C8.71 13 4.42 13 0 13 C0 8.71 0 4.42 0 0 Z " fill="#D08A4A" transform="translate(2,121)"/>
<path d="M0 0 C7.5465361 1.07807659 12.14596989 3.10582058 17 9 C18.52549471 12.6611873 19 14.994998 19 19 C12.73 19 6.46 19 0 19 C0 12.73 0 6.46 0 0 Z M2 4 C2 8.29 2 12.58 2 17 C6.29 17 10.58 17 15 17 C14.75645269 12.85969567 14.36725344 10.4968723 11.875 7.125 C8.5031277 4.63274656 6.14030433 4.24354731 2 4 Z " fill="#000000" transform="translate(0,117)"/>
<path d="M0 0 C0 6.27 0 12.54 0 19 C-6.27 19 -12.54 19 -19 19 C-16.09677419 7.38709677 -16.09677419 7.38709677 -10 2.6875 C-6.34179514 0.62975977 -4.15098584 0 0 0 Z M-12 8 C-14.00643742 11.27718112 -15 13.15240462 -15 17 C-10.38 17 -5.76 17 -1 17 C-1 12.71 -1 8.42 -1 4 C-6.52501503 4 -7.85844936 4.57871904 -12 8 Z " fill="#000000" transform="translate(232,117)"/>
<path d="M0 0 C6.27 0 12.54 0 19 0 C18.03891357 6.72760503 17.44573988 10.20814253 12.16796875 14.484375 C7.52066728 17.64773891 6.09281974 18 0 18 C0 12.06 0 6.12 0 0 Z M2 1 C2 5.62 2 10.24 2 15 C8.14129061 13.97645157 9.92859801 13.45013706 14 9 C14.78495019 6.22958758 14.90126719 3.91261788 15 1 C10.71 1 6.42 1 2 1 Z " fill="#000000" transform="translate(0,0)"/>
<path d="M0 0 C-1.22622237 6.28438967 -5.04226191 9.37056155 -10 13 C-13.13186168 14.87667976 -14.12576541 15 -18 15 C-18.33 16.32 -18.66 17.64 -19 19 C-19.99 19 -20.98 19 -22 19 C-22 16.36 -22 13.72 -22 11 C-20.80375 10.7525 -19.6075 10.505 -18.375 10.25 C-12.91142891 8.87206232 -9.24704172 6.27604269 -5.3125 2.25 C-3 0 -3 0 0 0 Z " fill="#E0B97C" transform="translate(22,7)"/>
<path d="M0 0 C1.79824219 0.00966797 1.79824219 0.00966797 3.6328125 0.01953125 C5.4890625 0.04466797 5.4890625 0.04466797 7.3828125 0.0703125 C8.64351562 0.07933594 9.90421875 0.08835938 11.203125 0.09765625 C14.3048829 0.12115442 17.40624902 0.15400916 20.5078125 0.1953125 C15.83369404 4.03476695 12.38972514 4.32218462 6.4296875 4.29296875 C5.26953125 4.28974609 4.109375 4.28652344 2.9140625 4.28320312 C1.7075 4.27482422 0.5009375 4.26644531 -0.7421875 4.2578125 C-1.96421875 4.25330078 -3.18625 4.24878906 -4.4453125 4.24414062 C-7.46098696 4.23236065 -10.47656248 4.21591103 -13.4921875 4.1953125 C-12.4921875 2.1953125 -12.4921875 2.1953125 -9.83544922 1.08251953 C-6.39042968 0.16830885 -3.55611069 -0.03386772 0 0 Z " fill="#D4A266" transform="translate(61.4921875,-0.1953125)"/>
<path d="M0 0 C5.94 0 11.88 0 18 0 C18 5.94 18 11.88 18 18 C9.5915993 16.94894991 7.2837052 15.94100824 2 10 C-0.17274774 6.19769145 0 4.60440986 0 0 Z M3 1 C3.7320957 6.45493463 3.7320957 6.45493463 6 11 C7.82108977 12.32638574 7.82108977 12.32638574 9.9375 13.25 C10.62714844 13.58515625 11.31679687 13.9203125 12.02734375 14.265625 C14.11776306 15.17444267 14.11776306 15.17444267 17 15 C17 10.38 17 5.76 17 1 C12.38 1 7.76 1 3 1 Z " fill="#000000" transform="translate(214,0)"/>
<path d="M0 0 C4.45821166 -0.08674429 8.91620804 -0.14030513 13.375 -0.1875 C14.64601563 -0.21263672 15.91703125 -0.23777344 17.2265625 -0.26367188 C18.43828125 -0.27333984 19.65 -0.28300781 20.8984375 -0.29296875 C22.01911621 -0.3086792 23.13979492 -0.32438965 24.29443359 -0.34057617 C25.18727051 -0.22818604 26.08010742 -0.1157959 27 0 C27.66 0.99 28.32 1.98 29 3 C19.43 3 9.86 3 0 3 C0 2.01 0 1.02 0 0 Z " fill="#F1D899" transform="translate(75,7)"/>
<path d="M0 0 C8.58 0 17.16 0 26 0 C26 0.99 26 1.98 26 3 C17.75 3 9.5 3 1 3 C0.67 2.01 0.34 1.02 0 0 Z " fill="#E4AC69" transform="translate(49,7)"/>
<path d="M0 0 C5.94 0 11.88 0 18 0 C13.52281208 2.98479194 9.36175907 4 4 4 C3.67 4.99 3.34 5.98 3 7 C1.35 7.33 -0.3 7.66 -2 8 C-1.34 5.36 -0.68 2.72 0 0 Z " fill="#BC743A" transform="translate(19,0)"/>
<path d="M0 0 C0.69738281 0.00902344 1.39476563 0.01804688 2.11328125 0.02734375 C3.82566958 0.05080112 5.53788004 0.08666896 7.25 0.125 C5.859375 2.109375 5.859375 2.109375 3.25 4.125 C-0.00975612 4.6346196 -3.21068817 4.50132512 -6.5 4.375 C-7.38816406 4.35695313 -8.27632813 4.33890625 -9.19140625 4.3203125 C-11.37870848 4.27327374 -13.56379816 4.20757009 -15.75 4.125 C-15.12641602 3.81804199 -14.50283203 3.51108398 -13.86035156 3.19482422 C-11.77263335 2.17839528 -11.77263335 2.17839528 -9.984375 1.0078125 C-6.70057463 -0.2896331 -3.47199583 -0.08532315 0 0 Z " fill="#EED495" transform="translate(89.75,-0.125)"/>
<path d="M0 0 C-0.63467682 3.43195616 -1.97588498 5.75691741 -3.9375 8.625 C-4.46214844 9.40101562 -4.98679688 10.17703125 -5.52734375 10.9765625 C-7 13 -7 13 -9 15 C-9.66 14.01 -10.32 13.02 -11 12 C-10.06692579 10.55962331 -9.12834923 9.12281015 -8.1875 7.6875 C-7.66542969 6.88699219 -7.14335937 6.08648437 -6.60546875 5.26171875 C-2.87046632 0 -2.87046632 0 0 0 Z " fill="#F4DA95" transform="translate(214,113)"/>
<path d="M0 0 C-0.61594846 3.01130357 -1.13467725 5.29665885 -3.5859375 7.2890625 C-6.50894115 9.00339797 -8.58147006 10 -12 10 C-12 9.34 -12 8.68 -12 8 C-10.3603279 6.63360658 -8.68889872 5.3050581 -7 4 C-6.29875 3.2575 -5.5975 2.515 -4.875 1.75 C-3 0 -3 0 0 0 Z " fill="#CF985D" transform="translate(22,7)"/>
<path d="M0 0 C-4.40585815 3.61909777 -7.63218198 4.13641866 -13.25 4.0625 C-14.14203125 4.05347656 -15.0340625 4.04445313 -15.953125 4.03515625 C-16.62859375 4.02355469 -17.3040625 4.01195312 -18 4 C-17 2 -17 2 -14.625 0.875 C-9.71740492 -0.30959192 -5.02296193 -0.16087778 0 0 Z " fill="#E1BC7E" transform="translate(82,0)"/>
<path d="M0 0 C-3.99613521 3.71069698 -6.37082652 5.59791618 -12 6 C-12 4.68 -12 3.36 -12 2 C-11.05125 1.690625 -10.1025 1.38125 -9.125 1.0625 C-3.1875 -0.95625 -3.1875 -0.95625 0 0 Z " fill="#C5854B" transform="translate(14,9)"/>
<path d="M0 0 C0.99 0.33 1.98 0.66 3 1 C3 5.95 3 10.9 3 16 C2.67 16 2.34 16 2 16 C2 14.35 2 12.7 2 11 C1.34 11 0.68 11 0 11 C0 7.37 0 3.74 0 0 Z " fill="#F3DB9B" transform="translate(222,87)"/>
<path d="M0 0 C-4.13791677 2.75861118 -6.71703018 4.27302852 -11.75 4.125 C-12.54921875 4.10695313 -13.3484375 4.08890625 -14.171875 4.0703125 C-14.77515625 4.04710937 -15.3784375 4.02390625 -16 4 C-11.71327571 -0.28672429 -5.76159905 -0.23516731 0 0 Z " fill="#CC9257" transform="translate(55,0)"/>
<path d="M0 0 C2.97 0 5.94 0 9 0 C9 0.99 9 1.98 9 3 C6.03 3 3.06 3 0 3 C0 2.01 0 1.02 0 0 Z " fill="#EFCA89" transform="translate(75,7)"/>
<path d="M0 0 C1.32 0 2.64 0 4 0 C4 3 4 3 2.625 4.5625 C2.08875 5.036875 1.5525 5.51125 1 6 C0.34 6.66 -0.32 7.32 -1 8 C-1.66 7.34 -2.32 6.68 -3 6 C-2.01 4.02 -1.02 2.04 0 0 Z " fill="#E4C07E" transform="translate(27,7)"/>
<path d="M0 0 C-5.05787568 3.37191712 -7.77909633 4.23926553 -14 4 C-9.86300566 -0.13699434 -5.66047258 -0.22197932 0 0 Z " fill="#DBB073" transform="translate(71,0)"/>
<path d="M0 0 C-2.71182212 2.60334924 -3.89133813 2.99456691 -7.75 3.1875 C-8.8225 3.125625 -9.895 3.06375 -11 3 C-7.6562111 -0.84535724 -4.83651161 -1.55459302 0 0 Z " fill="#F6E3A4" transform="translate(97,1)"/>
<path d="M0 0 C2.64 0 5.28 0 8 0 C8 0.66 8 1.32 8 2 C8.99 2.33 9.98 2.66 11 3 C9.54257537 3.08096803 8.08387193 3.13917774 6.625 3.1875 C5.81289062 3.22230469 5.00078125 3.25710938 4.1640625 3.29296875 C3.44992188 3.19628906 2.73578125 3.09960938 2 3 C1.34 2.01 0.68 1.02 0 0 Z " fill="#D3A065" transform="translate(102,7)"/>
<path d="M0 0 C0.66 0 1.32 0 2 0 C2.98248524 4.0527516 3.08159574 7.83861737 3 12 C0.05413171 7.58119757 -0.0985616 5.32232661 0 0 Z " fill="#EBBE7D" transform="translate(222,98)"/>
<path d="M0 0 C0.99 0.33 1.98 0.66 3 1 C3 3.64 3 6.28 3 9 C2.01 8.67 1.02 8.34 0 8 C0 5.36 0 2.72 0 0 Z " fill="#D5A468" transform="translate(222,79)"/>
<path d="M0 0 C-1.24420647 0.5345256 -2.49570936 1.05208611 -3.75 1.5625 C-4.44609375 1.85253906 -5.1421875 2.14257812 -5.859375 2.44140625 C-8.30012784 3.07831803 -9.6403655 2.80248831 -12 2 C-7.75950782 -0.82699479 -4.85416215 -1.37070821 0 0 Z " fill="#E7C688" transform="translate(82,1)"/>
<path d="M0 0 C0.66 0 1.32 0 2 0 C1.67 2.31 1.34 4.62 1 7 C0.01 6.01 -0.98 5.02 -2 4 C-1.34 2.68 -0.68 1.36 0 0 Z " fill="#E4C17F" transform="translate(205,121)"/>
<path d="M0 0 C2 1 2 1 2 1 Z M-6 1 C-4.02 1 -2.04 1 0 1 C-0.99 2.485 -0.99 2.485 -2 4 C-3.32 4 -4.64 4 -6 4 C-6 3.01 -6 2.02 -6 1 Z " fill="#D9AC6F" transform="translate(6,17)"/>
<path d="M0 0 C2.31 0.33 4.62 0.66 7 1 C7 1.66 7 2.32 7 3 C5.02 3 3.04 3 1 3 C0.67 2.01 0.34 1.02 0 0 Z " fill="#ECBE7A" transform="translate(49,7)"/>
</svg>
