<?xml version="1.0" encoding="UTF-8"?>
<svg version="1.1" xmlns="http://www.w3.org/2000/svg" width="232" height="136">
<path d="M0 0 C76.56 0 153.12 0 232 0 C232 44.88 232 89.76 232 136 C155.44 136 78.88 136 0 136 C0 91.12 0 46.24 0 0 Z M24 16 C24 18.97 24 21.94 24 25 C21.36 25 18.72 25 16 25 C16 53.38 16 81.76 16 111 C18.64 111 21.28 111 24 111 C24 113.97 24 116.94 24 120 C84.39 120 144.78 120 207 120 C207 117.03 207 114.06 207 111 C209.97 111 212.94 111 216 111 C216 82.62 216 54.24 216 25 C213.03 25 210.06 25 207 25 C207 22.03 207 19.06 207 16 C146.61 16 86.22 16 24 16 Z " fill="#DDA969" transform="translate(0,0)"/>
<path d="M0 0 C3.3 0 6.6 0 10 0 C10 2.31 10 4.62 10 7 C12.31 7 14.62 7 17 7 C17 10.3 17 13.6 17 17 C13.7 17 10.4 17 7 17 C7 18.32 7 19.64 7 21 C8.32 21 9.64 21 11 21 C11 49.38 11 77.76 11 107 C10.01 107.33 9.02 107.66 8 108 C7.67 108.99 7.34 109.98 7 111 C10.3 111 13.6 111 17 111 C17 114.3 17 117.6 17 121 C14.69 121 12.38 121 10 121 C10 123.31 10 125.62 10 128 C6.7 128 3.4 128 0 128 C0 125.03 0 122.06 0 119 C-0.99 119.33 -1.98 119.66 -3 120 C-3.33 120.99 -3.66 121.98 -4 123 C-64.39 123 -124.78 123 -187 123 C-187 121.68 -187 120.36 -187 119 C-135.52 119 -84.04 119 -31 119 C-31 118.01 -31 117.02 -31 116 C-22.09 116 -13.18 116 -4 116 C-4 113.03 -4 110.06 -4 107 C-1.03 107 1.94 107 5 107 C5 78.62 5 50.24 5 21 C2.03 21 -0.94 21 -4 21 C-4 18.03 -4 15.06 -4 12 C-36.34 12 -68.68 12 -102 12 C-102 11.01 -102 10.02 -102 9 C-130.05 9 -158.1 9 -187 9 C-187 7.68 -187 6.36 -187 5 C-126.61 5 -66.22 5 -4 5 C-4 6.32 -4 7.64 -4 9 C-2.68 9 -1.36 9 0 9 C0 6.03 0 3.06 0 0 Z " fill="#BB7239" transform="translate(211,4)"/>
<path d="M0 0 C2.97 0 5.94 0 9 0 C9 2.97 9 5.94 9 9 C38.37 9 67.74 9 98 9 C98 9.99 98 10.98 98 12 C69.95 12 41.9 12 13 12 C13 14.97 13 17.94 13 21 C10.36 21 7.72 21 5 21 C5 49.38 5 77.76 5 107 C7.64 107 10.28 107 13 107 C13 109.97 13 112.94 13 116 C64.48 116 115.96 116 169 116 C169 116.99 169 117.98 169 119 C116.2 119 63.4 119 9 119 C9 121.97 9 124.94 9 128 C6.03 128 3.06 128 0 128 C0 125.69 0 123.38 0 121 C-2.31 121 -4.62 121 -7 121 C-7 117.7 -7 114.4 -7 111 C-4.03 111 -1.06 111 2 111 C2 109.68 2 108.36 2 107 C0.68 107 -0.64 107 -2 107 C-2 78.62 -2 50.24 -2 21 C-0.68 20.67 0.64 20.34 2 20 C2 19.01 2 18.02 2 17 C-0.97 17 -3.94 17 -7 17 C-7 15.35 -7 13.7 -7 12 C-5.02 12 -3.04 12 -1 12 C-1 11.01 -1 10.02 -1 9 C-2.98 9 -4.96 9 -7 9 C-7 8.34 -7 7.68 -7 7 C-4.69 7 -2.38 7 0 7 C0 4.69 0 2.38 0 0 Z " fill="#DAA160" transform="translate(11,4)"/>
<path d="M0 0 C60.39 0 120.78 0 183 0 C183 1.32 183 2.64 183 4 C122.61 4 62.22 4 0 4 C0 2.68 0 1.36 0 0 Z " fill="#000000" transform="translate(24,123)"/>
<path d="M0 0 C60.39 0 120.78 0 183 0 C183 1.32 183 2.64 183 4 C122.61 4 62.22 4 0 4 C0 2.68 0 1.36 0 0 Z " fill="#000000" transform="translate(24,9)"/>
<path d="M0 0 C60.39 0 120.78 0 183 0 C183 0.99 183 1.98 183 3 C122.61 3 62.22 3 0 3 C0 2.01 0 1.02 0 0 Z " fill="#000000" transform="translate(24,129)"/>
<path d="M0 0 C60.39 0 120.78 0 183 0 C183 0.99 183 1.98 183 3 C122.61 3 62.22 3 0 3 C0 2.01 0 1.02 0 0 Z " fill="#000000" transform="translate(24,4)"/>
<path d="M0 0 C1.32 0 2.64 0 4 0 C4 28.38 4 56.76 4 86 C2.68 86 1.36 86 0 86 C0 57.62 0 29.24 0 0 Z " fill="#000000" transform="translate(218,25)"/>
<path d="M0 0 C1.32 0 2.64 0 4 0 C4 28.38 4 56.76 4 86 C2.68 86 1.36 86 0 86 C0 57.62 0 29.24 0 0 Z " fill="#000000" transform="translate(9,25)"/>
<path d="M0 0 C32.67 0 65.34 0 99 0 C99 0.99 99 1.98 99 3 C66.33 3 33.66 3 0 3 C0 2.01 0 1.02 0 0 Z " fill="#EDC885" transform="translate(81,120)"/>
<path d="M0 0 C0.99 0 1.98 0 3 0 C3 28.38 3 56.76 3 86 C2.01 86 1.02 86 0 86 C0 57.62 0 29.24 0 0 Z " fill="#000000" transform="translate(225,25)"/>
<path d="M0 0 C0.99 0 1.98 0 3 0 C3 28.38 3 56.76 3 86 C2.01 86 1.02 86 0 86 C0 57.62 0 29.24 0 0 Z " fill="#BB7239" transform="translate(222,25)"/>
<path d="M0 0 C0.99 0 1.98 0 3 0 C3 28.38 3 56.76 3 86 C2.01 86 1.02 86 0 86 C0 57.62 0 29.24 0 0 Z " fill="#000000" transform="translate(4,25)"/>
<path d="M0 0 C2.64 0 5.28 0 8 0 C8 2.97 8 5.94 8 9 C5.36 9 2.72 9 0 9 C0 6.03 0 3.06 0 0 Z " fill="#CF995D" transform="translate(16,16)"/>
<path d="M0 0 C2.97 0 5.94 0 9 0 C9 1.32 9 2.64 9 4 C7.35 4 5.7 4 4 4 C4 5.65 4 7.3 4 9 C2.68 9 1.36 9 0 9 C0 6.03 0 3.06 0 0 Z " fill="#D08A4A" transform="translate(207,111)"/>
<path d="M0 0 C1.32 0 2.64 0 4 0 C4 1.65 4 3.3 4 5 C5.65 5 7.3 5 9 5 C9 6.32 9 7.64 9 9 C6.03 9 3.06 9 0 9 C0 6.03 0 3.06 0 0 Z " fill="#F1CD89" transform="translate(207,16)"/>
<path d="M0 0 C2.31 0 4.62 0 7 0 C7 2.97 7 5.94 7 9 C5.68 9 4.36 9 3 9 C3 7.35 3 5.7 3 4 C1.68 4 0.36 4 -1 4 C-0.67 2.68 -0.34 1.36 0 0 Z " fill="#E4AA67" transform="translate(17,111)"/>
<path d="M0 0 C3.3 0 6.6 0 10 0 C10 1.65 10 3.3 10 5 C6.7 5 3.4 5 0 5 C0 3.35 0 1.7 0 0 Z " fill="#000000" transform="translate(218,115)"/>
<path d="M0 0 C3.3 0 6.6 0 10 0 C10 1.65 10 3.3 10 5 C6.7 5 3.4 5 0 5 C0 3.35 0 1.7 0 0 Z " fill="#000000" transform="translate(218,16)"/>
<path d="M0 0 C1.65 0 3.3 0 5 0 C5 2.97 5 5.94 5 9 C3.35 9 1.7 9 0 9 C0 6.03 0 3.06 0 0 Z " fill="#000000" transform="translate(211,123)"/>
<path d="M0 0 C2.97 0 5.94 0 9 0 C9 1.65 9 3.3 9 5 C6.03 5 3.06 5 0 5 C0 3.35 0 1.7 0 0 Z " fill="#000000" transform="translate(4,115)"/>
<path d="M0 0 C2.97 0 5.94 0 9 0 C9 1.65 9 3.3 9 5 C6.03 5 3.06 5 0 5 C0 3.35 0 1.7 0 0 Z " fill="#000000" transform="translate(4,16)"/>
<path d="M0 0 C4.95 0 9.9 0 15 0 C15 0.99 15 1.98 15 3 C10.05 3 5.1 3 0 3 C0 2.01 0 1.02 0 0 Z " fill="#EED394" transform="translate(94,13)"/>
<path d="M0 0 C1.65 0 3.3 0 5 0 C5 2.97 5 5.94 5 9 C3.35 9 1.7 9 0 9 C0 6.03 0 3.06 0 0 Z " fill="#000000" transform="translate(211,4)"/>
<path d="M0 0 C3.3 0 6.6 0 10 0 C10 0.66 10 1.32 10 2 C7.69 2 5.38 2 3 2 C3 4.31 3 6.62 3 9 C2.01 9 1.02 9 0 9 C0 6.03 0 3.06 0 0 Z " fill="#000000" transform="translate(218,123)"/>
<path d="M0 0 C0.99 0 1.98 0 3 0 C3 2.31 3 4.62 3 7 C5.31 7 7.62 7 10 7 C10 7.66 10 8.32 10 9 C6.7 9 3.4 9 0 9 C0 6.03 0 3.06 0 0 Z " fill="#000000" transform="translate(218,4)"/>
<path d="M0 0 C1.32 0 2.64 0 4 0 C4 2.97 4 5.94 4 9 C2.68 9 1.36 9 0 9 C0 6.03 0 3.06 0 0 Z " fill="#000000" transform="translate(16,123)"/>
<path d="M0 0 C1.32 0 2.64 0 4 0 C4 2.97 4 5.94 4 9 C2.68 9 1.36 9 0 9 C0 6.03 0 3.06 0 0 Z " fill="#000000" transform="translate(16,4)"/>
<path d="M0 0 C2.97 0 5.94 0 9 0 C9 2.97 9 5.94 9 9 C8.34 9 7.68 9 7 9 C7 6.69 7 4.38 7 2 C4.69 2 2.38 2 0 2 C0 1.34 0 0.68 0 0 Z " fill="#000000" transform="translate(4,123)"/>
<path d="M0 0 C0.66 0 1.32 0 2 0 C2 2.97 2 5.94 2 9 C-0.97 9 -3.94 9 -7 9 C-7 8.34 -7 7.68 -7 7 C-4.69 7 -2.38 7 0 7 C0 4.69 0 2.38 0 0 Z " fill="#000000" transform="translate(11,4)"/>
<path d="M0 0 C2.97 0 5.94 0 9 0 C9 0.99 9 1.98 9 3 C6.03 3 3.06 3 0 3 C0 2.01 0 1.02 0 0 Z " fill="#C88B51" transform="translate(109,13)"/>
<path d="M0 0 C1.65 0 3.3 0 5 0 C5 1.65 5 3.3 5 5 C3.35 5 1.7 5 0 5 C0 3.35 0 1.7 0 0 Z " fill="#000000" transform="translate(211,115)"/>
<path d="M0 0 C1.65 0 3.3 0 5 0 C5 1.65 5 3.3 5 5 C3.35 5 1.7 5 0 5 C0 3.35 0 1.7 0 0 Z " fill="#000000" transform="translate(211,16)"/>
<path d="M0 0 C2.64 0 5.28 0 8 0 C8 0.99 8 1.98 8 3 C5.36 3 2.72 3 0 3 C0 2.01 0 1.02 0 0 Z " fill="#C88C52" transform="translate(180,120)"/>
<path d="M0 0 C2.64 0 5.28 0 8 0 C8 0.99 8 1.98 8 3 C5.36 3 2.72 3 0 3 C0 2.01 0 1.02 0 0 Z " fill="#DCB174" transform="translate(172,120)"/>
<path d="M0 0 C2.64 0 5.28 0 8 0 C8 0.99 8 1.98 8 3 C5.36 3 2.72 3 0 3 C0 2.01 0 1.02 0 0 Z " fill="#F0D698" transform="translate(164,120)"/>
<path d="M0 0 C2.31 0 4.62 0 7 0 C7 0.99 7 1.98 7 3 C4.69 3 2.38 3 0 3 C0 2.01 0 1.02 0 0 Z " fill="#DBB073" transform="translate(102,13)"/>
<path d="M0 0 C1.32 0 2.64 0 4 0 C4 1.65 4 3.3 4 5 C2.68 5 1.36 5 0 5 C0 3.35 0 1.7 0 0 Z " fill="#000000" transform="translate(16,115)"/>
<path d="M0 0 C1.32 0 2.64 0 4 0 C4 1.65 4 3.3 4 5 C2.68 5 1.36 5 0 5 C0 3.35 0 1.7 0 0 Z " fill="#000000" transform="translate(16,16)"/>
</svg>
