<?xml version="1.0" encoding="UTF-8"?>
<svg version="1.1" xmlns="http://www.w3.org/2000/svg" width="230" height="135">
<path d="M0 0 C75.9 0 151.8 0 230 0 C230 44.55 230 89.1 230 135 C154.1 135 78.2 135 0 135 C0 90.45 0 45.9 0 0 Z M53.21875 10.98632812 C50.44539664 13.5033416 49.05582935 13.53072704 45.359375 13.609375 C44.28945313 13.64160156 43.21953125 13.67382812 42.1171875 13.70703125 C41.00601563 13.72121094 39.89484375 13.73539063 38.75 13.75 C37.62335937 13.77964844 36.49671875 13.80929688 35.3359375 13.83984375 C32.55721979 13.91048912 29.77933852 13.96321277 27 14 C27 15.32 27 16.64 27 18 C28.32 18 29.64 18 31 18 C31 22.29 31 26.58 31 31 C26.71 31 22.42 31 18 31 C18 29.68 18 28.36 18 27 C17.01 27 16.02 27 15 27 C14.9906543 27.67579102 14.98130859 28.35158203 14.97167969 29.04785156 C14.91792699 32.1159711 14.83429008 35.18257387 14.75 38.25 C14.72873047 39.84521484 14.72873047 39.84521484 14.70703125 41.47265625 C14.67480469 42.49746094 14.64257812 43.52226563 14.609375 44.578125 C14.58842773 45.52075195 14.56748047 46.46337891 14.54589844 47.43457031 C13.85780753 50.66822831 12.483164 51.89753013 10 54 C10.33 54.66 10.66 55.32 11 56 C12.485 55.505 12.485 55.505 14 55 C11.125 59.875 11.125 59.875 10 61 C9.84806837 63.12119924 9.77816486 65.24855315 9.75 67.375 C9.72421875 68.53773437 9.6984375 69.70046875 9.671875 70.8984375 C10.03308247 74.31270807 10.45483356 74.90473672 13 77 C13.33 77.99 13.66 78.98 14 80 C12.68 79.67 11.36 79.34 10 79 C11.15173355 81.46800047 12.04783565 83.04783565 14 85 C14.31884766 87.33837891 14.31884766 87.33837891 14.4140625 90.2265625 C14.45273438 91.2578125 14.49140625 92.2890625 14.53125 93.3515625 C14.5621875 94.43179688 14.593125 95.51203125 14.625 96.625 C14.66367188 97.71296875 14.70234375 98.8009375 14.7421875 99.921875 C14.83666247 102.61441165 14.92222431 105.30693757 15 108 C15.99 108 16.98 108 18 108 C18 106.68 18 105.36 18 104 C22.29 104 26.58 104 31 104 C31 108.29 31 112.58 31 117 C29.68 117 28.36 117 27 117 C27 117.99 27 118.98 27 120 C28.0058313 120.00616333 28.0058313 120.00616333 29.03198242 120.01245117 C32.08470391 120.04544643 35.1354453 120.1160962 38.1875 120.1875 C39.77014648 120.19620117 39.77014648 120.19620117 41.38476562 120.20507812 C49.33232427 120.43071859 49.33232427 120.43071859 52.96875 123.53125 C53.6390625 124.3459375 54.309375 125.160625 55 126 C57.19679507 126.59446973 57.19679507 126.59446973 59.3125 126.3125 C60.529375 126.209375 61.74625 126.10625 63 126 C62.01 124.68 61.02 123.36 60 122 C96.3 122 132.6 122 170 122 C169.01 123.32 168.02 124.64 167 126 C168.216875 126.103125 169.43375 126.20625 170.6875 126.3125 C171.37199219 126.37050781 172.05648437 126.42851563 172.76171875 126.48828125 C175.27702043 126.18381625 175.27702043 126.18381625 177 123.53125 C181.64881599 119.60881151 186.41328798 120.21853034 192.3125 120.1875 C193.43462891 120.16236328 194.55675781 120.13722656 195.71289062 120.11132812 C198.47561286 120.0525468 201.23675392 120.0162002 204 120 C204 119.01 204 118.02 204 117 C202.35 117 200.7 117 199 117 C199 112.71 199 108.42 199 104 C203.29 104 207.58 104 212 104 C212 105.32 212 106.64 212 108 C213.32 108 214.64 108 216 108 C216.01401855 106.94087402 216.01401855 106.94087402 216.02832031 105.86035156 C216.08205659 102.65619455 216.16569757 99.45349243 216.25 96.25 C216.26417969 95.13882813 216.27835938 94.02765625 216.29296875 92.8828125 C216.32519531 91.81289062 216.35742188 90.74296875 216.390625 89.640625 C216.41157227 88.65610352 216.43251953 87.67158203 216.45410156 86.65722656 C217.13273857 83.35387897 218.45789577 82.13465895 221 80 C220.67 79.34 220.34 78.68 220 78 C218.02 78.99 218.02 78.99 216 80 C217.52206009 77.37098712 218.84365964 75.15634036 221 73 C221.50437059 69.3051922 221.46635007 65.69788174 221 62 C219.22845348 59.47409152 219.22845348 59.47409152 217 58 C216.67 57.01 216.34 56.02 216 55 C217.65 55.66 219.3 56.32 221 57 C219.84826645 54.53199953 218.95216435 52.95216435 217 51 C216.68115234 48.56982422 216.68115234 48.56982422 216.5859375 45.5546875 C216.54726562 44.47832031 216.50859375 43.40195312 216.46875 42.29296875 C216.42234375 40.60107422 216.42234375 40.60107422 216.375 38.875 C216.33632812 37.73933594 216.29765625 36.60367188 216.2578125 35.43359375 C216.16332399 32.62256044 216.07776459 29.81153767 216 27 C214.68 27 213.36 27 212 27 C212 28.32 212 29.64 212 31 C207.71 31 203.42 31 199 31 C199 26.71 199 22.42 199 18 C200.32 18 201.64 18 203 18 C203 16.68 203 15.36 203 14 C202.29391602 13.9906543 201.58783203 13.98130859 200.86035156 13.97167969 C197.65619455 13.91794341 194.45349243 13.83430243 191.25 13.75 C189.58324219 13.72873047 189.58324219 13.72873047 187.8828125 13.70703125 C186.27792969 13.65869141 186.27792969 13.65869141 184.640625 13.609375 C183.65610352 13.58842773 182.67158203 13.56748047 181.65722656 13.54589844 C178.338704 12.86414389 177.22220264 11.47804834 175 9 C172.21857957 8.49244153 169.8542771 8.80971486 167 9 C167.99 10.32 168.98 11.64 170 13 C133.7 13 97.4 13 60 13 C60.99 11.68 61.98 10.36 63 9 C57.48365161 8.22055851 57.48365161 8.22055851 53.21875 10.98632812 Z " fill="#C29760" transform="translate(0,0)"/>
<path d="M0 0 C0.64861897 -0.0034177 1.29723794 -0.0068354 1.96551204 -0.01035666 C4.13702516 -0.01694084 6.30729969 0.00504694 8.47869873 0.0269165 C10.03591889 0.02804488 11.59314118 0.02741132 13.15036011 0.02514648 C17.37744739 0.023998 21.6040814 0.04752879 25.83106327 0.07544231 C30.24863962 0.10043371 34.66622617 0.10279618 39.0838623 0.10754395 C47.44908088 0.11998039 55.81409055 0.152811 64.1792171 0.1929419 C73.70267836 0.23763884 83.22614955 0.25964142 92.74968958 0.27972364 C112.34013999 0.32154307 131.9304023 0.3919081 151.52069092 0.48101807 C151.59008435 13.61520724 151.64344789 26.74935308 151.67612743 39.88368797 C151.69180893 45.98195223 151.71309252 52.08009143 151.74700928 58.17828369 C151.77951411 64.05916199 151.7975252 69.93991972 151.80532265 75.82088089 C151.81088214 78.06886316 151.82173787 80.31683856 151.83788109 82.56476974 C151.85953728 85.70415458 151.86266279 88.84303588 151.86126709 91.98248291 C151.87205292 92.91971695 151.88283875 93.85695099 151.89395142 94.82258606 C151.88982742 95.67516495 151.88570343 96.52774384 151.88145447 97.40615845 C151.88421985 98.14912359 151.88698523 98.89208874 151.8898344 99.65756798 C151.52069092 101.48101807 151.52069092 101.48101807 148.52069092 103.48101807 C148.19069092 95.89101807 147.86069092 88.30101807 147.52069092 80.48101807 C147.19069092 89.72101807 146.86069092 98.96101807 146.52069092 108.48101807 C145.20069092 108.48101807 143.88069092 108.48101807 142.52069092 108.48101807 C142.19069092 101.22101807 141.86069092 93.96101807 141.52069092 86.48101807 C139.11135433 88.89035465 140.05418707 95.09318439 139.89959717 98.35601807 C139.77455811 99.38726807 139.64951904 100.41851807 139.52069092 101.48101807 C138.53069092 101.97601807 138.53069092 101.97601807 137.52069092 102.48101807 C137.43965688 99.56379258 137.38018011 96.64882291 137.33319092 93.73101807 C137.3080542 92.90601807 137.28291748 92.08101807 137.25701904 91.23101807 C137.18234593 85.05804053 137.18234593 85.05804053 139.03240967 81.90289307 C139.52354248 81.43367432 140.01467529 80.96445557 140.52069092 80.48101807 C139.53069092 80.48101807 138.54069092 80.48101807 137.52069092 80.48101807 C138.15663754 76.79252766 138.15663754 76.79252766 140.03631592 75.18414307 C142.62528903 72.21363707 141.97623657 68.84920354 141.89178467 65.07867432 C141.71843237 62.29429101 141.71843237 62.29429101 139.52069092 59.98101807 C138.86069092 59.48601807 138.20069092 58.99101807 137.52069092 58.48101807 C137.52069092 57.49101807 137.52069092 56.50101807 137.52069092 55.48101807 C138.84069092 55.81101807 140.16069092 56.14101807 141.52069092 56.48101807 C140.86584717 55.90996338 140.21100342 55.33890869 139.53631592 54.75054932 C136.44738545 49.74001676 137.09568677 44.92682758 137.27069092 39.16851807 C137.28873779 38.04638916 137.30678467 36.92426025 137.32537842 35.76812744 C137.37241236 33.0048836 137.43812775 30.24339109 137.52069092 27.48101807 C136.20069092 27.48101807 134.88069092 27.48101807 133.52069092 27.48101807 C133.52069092 28.80101807 133.52069092 30.12101807 133.52069092 31.48101807 C129.23069092 31.48101807 124.94069092 31.48101807 120.52069092 31.48101807 C120.52069092 27.19101807 120.52069092 22.90101807 120.52069092 18.48101807 C121.84069092 18.48101807 123.16069092 18.48101807 124.52069092 18.48101807 C124.52069092 17.16101807 124.52069092 15.84101807 124.52069092 14.48101807 C123.81460693 14.50196533 123.10852295 14.5229126 122.38104248 14.54449463 C119.17773716 14.62771104 115.97465928 14.67969592 112.77069092 14.73101807 C111.10393311 14.7812915 111.10393311 14.7812915 109.40350342 14.83258057 C108.33358154 14.84547119 107.26365967 14.85836182 106.16131592 14.87164307 C104.68453369 14.90306396 104.68453369 14.90306396 103.17791748 14.93511963 C99.80277589 14.35833137 98.82519957 12.91946806 96.52069092 10.48101807 C92.85316962 10.14683878 92.85316962 10.14683878 89.52069092 10.48101807 C90.51069092 11.80101807 91.50069092 13.12101807 92.52069092 14.48101807 C55.56069092 14.48101807 18.60069092 14.48101807 -19.47930908 14.48101807 C-18.48930908 13.16101807 -17.49930908 11.84101807 -16.47930908 10.48101807 C-19.44930908 9.98601807 -19.44930908 9.98601807 -22.47930908 9.48101807 C-21.54180908 7.54351807 -21.54180908 7.54351807 -19.47930908 5.48101807 C-17.20914907 5.09835852 -15.03439611 4.98091772 -12.73321533 4.94976807 C-10.29882784 4.68088271 -10.29882784 4.68088271 -8.74339676 2.48178482 C-5.72152356 -0.18863448 -3.99557942 -0.01268438 0 0 Z " fill="#E8BE7B" transform="translate(78.47930908203125,-0.48101806640625)"/>
<path d="M0 0 C0.33 0 0.66 0 1 0 C1.495 11.385 1.495 11.385 2 23 C2.99 22.505 2.99 22.505 4 22 C4 33.22 4 44.44 4 56 C-19.76 56 -43.52 56 -68 56 C-66.02 53.525 -66.02 53.525 -64 51 C-61.9921875 50.86328125 -61.9921875 50.86328125 -59.875 51.3125 C-57.42362307 51.59808493 -57.42362307 51.59808493 -55 51 C-52.90781037 48.75460415 -52.90781037 48.75460415 -50.875 46 C-48.05084559 42.78661918 -46.54229108 41.27141189 -42.30859375 40.52636719 C-35.53028751 40.10434621 -28.76276949 40.45038758 -22 41 C-22 40.01 -22 39.02 -22 38 C-23.65 38 -25.3 38 -27 38 C-27 33.71 -27 29.42 -27 25 C-22.71 25 -18.42 25 -14 25 C-14 26.32 -14 27.64 -14 29 C-12.68 29 -11.36 29 -10 29 C-10.020625 28.030625 -10.04125 27.06125 -10.0625 26.0625 C-10 23 -10 23 -9 22 C-8.75485659 18.40910298 -8.61559231 14.81913786 -8.4765625 11.22265625 C-8.24066406 9.62744141 -8.24066406 9.62744141 -8 8 C-7.01 7.34 -6.02 6.68 -5 6 C-5 13.59 -5 21.18 -5 29 C-3.68 29 -2.36 29 -1 29 C-1.00523682 28.15703369 -1.01047363 27.31406738 -1.01586914 26.44555664 C-1.03287826 23.32772064 -1.04543406 20.20990823 -1.05493164 17.09204102 C-1.05997057 15.74079614 -1.06680177 14.38955674 -1.07543945 13.03833008 C-1.08752419 11.09979566 -1.09269828 9.161222 -1.09765625 7.22265625 C-1.10289307 6.05484619 -1.10812988 4.88703613 -1.11352539 3.68383789 C-1 1 -1 1 0 0 Z " fill="#B07D48" transform="translate(226,79)"/>
<path d="M0 0 C36.96 0 73.92 0 112 0 C111.01 1.32 110.02 2.64 109 4 C111.31 4.33 113.62 4.66 116 5 C114 7.5 114 7.5 111 10 C109.02734375 10.19140625 109.02734375 10.19140625 106.9375 10.0625 C105.638125 10.041875 104.33875 10.02125 103 10 C102.4267247 10.64509018 101.8534494 11.29018036 101.26280212 11.95481873 C98.05308126 14.85585057 94.98235072 14.62800546 90.85766602 14.66040039 C90.03915665 14.6818663 89.22064728 14.70333221 88.37733459 14.72544861 C85.66941678 14.78895304 82.96242526 14.82110343 80.25390625 14.84765625 C79.32500013 14.86021391 78.39609402 14.87277157 77.43903923 14.88570976 C72.51572897 14.95153556 67.59288224 14.9935185 62.66918945 15.01586914 C57.61042003 15.04328164 52.55663548 15.14953681 47.49948215 15.2749567 C43.58796647 15.35751034 39.67761508 15.38100345 35.76530266 15.38915825 C33.90293426 15.4030065 32.04058447 15.4383959 30.17907906 15.49675179 C21.02274746 15.76397209 13.97451963 15.80077397 7.00011349 9.29925442 C0 1.9847471 0 1.9847471 0 0 Z " fill="#EFCF8C" transform="translate(59,121)"/>
<path d="M0 0 C1.21011246 -0.01971359 1.21011246 -0.01971359 2.44467163 -0.03982544 C5.12246051 -0.07933828 7.80002443 -0.10263064 10.47802734 -0.12255859 C11.39294323 -0.13070965 12.30785912 -0.1388607 13.25049973 -0.14725876 C18.09667817 -0.18900799 22.94274302 -0.21759455 27.7890625 -0.23632812 C32.78645529 -0.25841806 37.78205705 -0.32715762 42.77881813 -0.40667152 C46.62742321 -0.45907749 50.47560491 -0.47571819 54.32453537 -0.48289108 C56.16574523 -0.49261073 58.00693693 -0.51580575 59.84779739 -0.55296707 C74.25443299 -0.82562179 74.25443299 -0.82562179 79.14666748 2.15753174 C81.15899495 4.12666843 82.75432086 5.9371784 84.18896484 8.35400391 C84.18896484 8.68400391 84.18896484 9.01400391 84.18896484 9.35400391 C51.18896484 9.35400391 18.18896484 9.35400391 -15.81103516 9.35400391 C-7.84051761 0.05506677 -7.84051761 0.05506677 0 0 Z " fill="#A1865A" transform="translate(80.81103515625,2.64599609375)"/>
<path d="M0 0 C33 0 66 0 100 0 C99.34 0.99 98.68 1.98 98 3 C95.89926147 3.36076355 95.89926147 3.36076355 93.27490234 3.34057617 C92.29403656 3.34034958 91.31317078 3.34012299 90.30258179 3.33988953 C89.24108917 3.32440567 88.17959656 3.30892181 87.0859375 3.29296875 C86.00116119 3.28872391 84.91638489 3.28447906 83.79873657 3.28010559 C80.32390833 3.263273 76.84965382 3.22561189 73.375 3.1875 C71.02344586 3.17245911 68.67188265 3.15876967 66.3203125 3.14648438 C60.54667827 3.11335454 54.77338011 3.06310982 49 3 C49 4.32 49 5.64 49 7 C63.52 7 78.04 7 93 7 C92.67 7.66 92.34 8.32 92 9 C81.18622255 9.1856822 70.37282668 9.3276693 59.5577774 9.41449738 C54.53533973 9.45617974 49.51399574 9.51267871 44.4921875 9.60351562 C39.64211854 9.69069305 34.79309873 9.73832641 29.94230652 9.75901794 C28.09546904 9.77375526 26.2486865 9.80253575 24.40229797 9.84584045 C9.9291417 10.17166778 9.9291417 10.17166778 5.0378418 7.20092773 C3.02414613 5.23034341 1.4317527 3.42078065 0 1 C0 0.67 0 0.34 0 0 Z " fill="#604023" transform="translate(65,123)"/>
<path d="M0 0 C0.81850937 -0.02146591 1.63701874 -0.04293182 2.48033142 -0.06504822 C5.18824923 -0.12855265 7.89524076 -0.16070304 10.60375977 -0.18725586 C11.53266588 -0.19981352 12.461572 -0.21237118 13.41862679 -0.22530937 C18.34193705 -0.29113517 23.26478378 -0.33311811 28.18847656 -0.35546875 C33.24724599 -0.38288125 38.30103053 -0.48913642 43.35818386 -0.61455631 C47.26969954 -0.69710995 51.18005093 -0.72060306 55.09236336 -0.72875786 C56.95473176 -0.7426061 58.81708154 -0.77799551 60.67858696 -0.83635139 C69.83491856 -1.1035717 76.88314639 -1.14037358 83.85755253 5.36114597 C90.85766602 12.67565329 90.85766602 12.67565329 90.85766602 14.66040039 C53.89766602 14.66040039 16.93766602 14.66040039 -21.14233398 14.66040039 C-20.15233398 13.34040039 -19.16233398 12.02040039 -18.14233398 10.66040039 C-21.11233398 10.16540039 -21.11233398 10.16540039 -24.14233398 9.66040039 C-23.20483398 7.72290039 -23.20483398 7.72290039 -21.14233398 5.66040039 C-18.87217397 5.27774084 -16.69742101 5.16030005 -14.39624023 5.12915039 C-11.96608476 4.86967766 -11.96608476 4.86967766 -10.51036072 2.67237854 C-7.20684072 -0.13443523 -4.14750514 0.03257416 0 0 Z M-14.06332397 9.84268188 C-15.2274086 11.45141014 -15.2274086 11.45141014 -15.14233398 12.66040039 C17.85766602 12.66040039 50.85766602 12.66040039 84.85766602 12.66040039 C80.04372479 5.80187716 80.04372479 5.80187716 73.48202515 3.36605835 C72.00373732 3.33574904 70.5251929 3.31678096 69.04663086 3.30639648 C68.23988922 3.29325409 67.43314758 3.28011169 66.60195923 3.26657104 C63.92417035 3.22705821 61.24660642 3.20376584 58.56860352 3.18383789 C57.65368763 3.17568684 56.73877174 3.16753578 55.79613113 3.15913773 C50.94995269 3.1173885 46.10388784 3.08880193 41.25756836 3.07006836 C36.26017557 3.04797842 31.26457381 2.97923886 26.26781273 2.89972496 C22.41920765 2.84731899 18.57102595 2.83067829 14.72209549 2.8235054 C12.88088563 2.81378575 11.03969393 2.79059073 9.19883347 2.75342941 C-3.97944495 2.19157176 -3.97944495 2.19157176 -14.06332397 9.84268188 Z " fill="#EFCF8E" transform="translate(80.142333984375,-0.660400390625)"/>
<path d="M0 0 C1.32 0 2.64 0 4 0 C4 0.66 4 1.32 4 2 C13.24 2 22.48 2 32 2 C29 6 29 6 26.36450195 6.45410156 C24.81702271 6.42268066 24.81702271 6.42268066 23.23828125 6.390625 C22.12001953 6.37773437 21.00175781 6.36484375 19.84960938 6.3515625 C18.68236328 6.31804688 17.51511719 6.28453125 16.3125 6.25 C15.13365234 6.23195313 13.95480469 6.21390625 12.74023438 6.1953125 C9.82601074 6.14811859 6.91340969 6.08229077 4 6 C4 6.99 4 7.98 4 9 C2.68 9 1.36 9 0 9 C0 8.01 0 7.02 0 6 C-4.29 6 -8.58 6 -13 6 C-13 10.62 -13 15.24 -13 20 C-12.34 20 -11.68 20 -11 20 C-11 21.32 -11 22.64 -11 24 C-11.66 24 -12.32 24 -13 24 C-12.97381592 24.70608398 -12.94763184 25.41216797 -12.9206543 26.13964844 C-12.81663643 29.34287208 -12.75165851 32.5457406 -12.6875 35.75 C-12.64560547 36.86117187 -12.60371094 37.97234375 -12.56054688 39.1171875 C-12.54443359 40.18710937 -12.52832031 41.25703125 -12.51171875 42.359375 C-12.48553467 43.34389648 -12.45935059 44.32841797 -12.43237305 45.34277344 C-13 48 -13 48 -18 52 C-18 42.76 -18 33.52 -18 24 C-18.66 24 -19.32 24 -20 24 C-19.505 22.515 -19.505 22.515 -19 21 C-18.85426942 19.52034074 -18.75336732 18.03596157 -18.68359375 16.55078125 C-18.64169922 15.70322266 -18.59980469 14.85566406 -18.55664062 13.98242188 C-18.49766602 12.66081055 -18.49766602 12.66081055 -18.4375 11.3125 C-18.39431641 10.41982422 -18.35113281 9.52714844 -18.30664062 8.60742188 C-18.2006478 6.40512656 -18.09982779 4.20258338 -18 2 C-12.06 2 -6.12 2 0 2 C0 1.34 0 0.68 0 0 Z " fill="#E8C987" transform="translate(23,3)"/>
<path d="M0 0 C5.18170429 0.78545 8.32019844 4.03054096 11.85693359 7.6796875 C15.67487194 13.59492576 15.22538494 19.74922022 14.91918945 26.59814453 C14.81143364 29.02400655 14.77565178 31.44308126 14.75195312 33.87109375 C14.72023262 35.41415193 14.6845711 36.95713528 14.64453125 38.5 C14.62070122 39.58583374 14.62070122 39.58583374 14.59638977 40.69360352 C14.49926758 42.71875 14.49926758 42.71875 14 46 C13.01 46.66 12.02 47.32 11 48 C10.67 40.41 10.34 32.82 10 25 C9.67 34.24 9.34 43.48 9 53 C7.68 53 6.36 53 5 53 C4.67 45.74 4.34 38.48 4 31 C1.59066341 33.40933659 2.53349615 39.61216632 2.37890625 42.875 C2.25386719 43.90625 2.12882813 44.9375 2 46 C1.01 46.495 1.01 46.495 0 47 C-0.08103404 44.08277452 -0.14051081 41.16780484 -0.1875 38.25 C-0.22520508 37.0125 -0.22520508 37.0125 -0.26367188 35.75 C-0.33834499 29.57702246 -0.33834499 29.57702246 1.51171875 26.421875 C2.24841797 25.71804687 2.24841797 25.71804687 3 25 C2.01 25 1.02 25 0 25 C0.63594662 21.31150959 0.63594662 21.31150959 2.515625 19.703125 C5.10459811 16.73261901 4.45554566 13.36818547 4.37109375 9.59765625 C4.19774145 6.81327294 4.19774145 6.81327294 2 4.5 C1.34 4.005 0.68 3.51 0 3 C0 2.01 0 1.02 0 0 Z " fill="#D1AC70" transform="translate(216,55)"/>
<path d="M0 0 C6.6 0 13.2 0 20 0 C20 17.49 20 34.98 20 53 C13 47 13 47 11 45 C10.82482253 42.27514272 10.76850867 39.65340638 10.8046875 36.9296875 C10.8075174 36.13345978 10.81034729 35.33723206 10.81326294 34.51687622 C10.8244736 31.96943237 10.84957938 29.42233789 10.875 26.875 C10.88502867 25.14974465 10.89415472 23.42448381 10.90234375 21.69921875 C10.92441578 17.46601086 10.95895133 13.2330647 11 9 C7.37 9 3.74 9 0 9 C0 8.01 0 7.02 0 6 C4.62 6 9.24 6 14 6 C14 10.29 14 14.58 14 19 C15.32 19 16.64 19 18 19 C18 13.39 18 7.78 18 2 C12.06 2 6.12 2 0 2 C0 1.34 0 0.68 0 0 Z " fill="#7C512C" transform="translate(207,3)"/>
<path d="M0 0 C33 0 66 0 100 0 C99.34 0.99 98.68 1.98 98 3 C94.93129167 3.3019508 92.06378547 3.40920474 88.9921875 3.38818359 C88.05876526 3.39344055 87.12534302 3.39869751 86.16363525 3.40411377 C83.06725505 3.41735593 79.97138575 3.40856073 76.875 3.3984375 C74.73030498 3.40045702 72.58561063 3.40336743 70.44091797 3.40713501 C65.9416654 3.41156408 61.44259125 3.4051085 56.94335938 3.39111328 C51.1658203 3.37402117 45.38869926 3.38385923 39.61117554 3.40183067 C35.18120147 3.41265272 30.7513271 3.40922942 26.3213501 3.4014473 C24.19061229 3.39944092 22.05986554 3.40191982 19.92913818 3.40888596 C16.9551178 3.41647445 13.9817817 3.40493275 11.0078125 3.38818359 C9.67680511 3.39729263 9.67680511 3.39729263 8.31890869 3.40658569 C5.87158203 3.38095093 5.87158203 3.38095093 2 3 C1.34 2.01 0.68 1.02 0 0 Z " fill="#000000" transform="translate(65,123)"/>
<path d="M0 0 C3.06870833 -0.3019508 5.93621453 -0.40920474 9.0078125 -0.38818359 C9.94123474 -0.39344055 10.87465698 -0.39869751 11.83636475 -0.40411377 C14.93274495 -0.41735593 18.02861425 -0.40856073 21.125 -0.3984375 C23.26969502 -0.40045702 25.41438937 -0.40336743 27.55908203 -0.40713501 C32.0583346 -0.41156408 36.55740875 -0.4051085 41.05664062 -0.39111328 C46.8341797 -0.37402117 52.61130074 -0.38385923 58.38882446 -0.40183067 C62.81879853 -0.41265272 67.2486729 -0.40922942 71.6786499 -0.4014473 C73.80938771 -0.39944092 75.94013446 -0.40191982 78.07086182 -0.40888596 C81.0448822 -0.41647445 84.0182183 -0.40493275 86.9921875 -0.38818359 C87.87952576 -0.39425629 88.76686401 -0.40032898 89.68109131 -0.40658569 C92.12841797 -0.38095093 92.12841797 -0.38095093 96 0 C96.99 1.485 96.99 1.485 98 3 C65 3 32 3 -2 3 C-1.34 2.01 -0.68 1.02 0 0 Z " fill="#000000" transform="translate(67,9)"/>
<path d="M0 0 C2.97 0 5.94 0 9 0 C9 3.63 9 7.26 9 11 C12.63 11 16.26 11 20 11 C20 13.97 20 16.94 20 20 C13.4 20 6.8 20 0 20 C0 13.4 0 6.8 0 0 Z " fill="#D08A4A" transform="translate(3,112)"/>
<path d="M0 0 C2.97 0 5.94 0 9 0 C9 4.29 9 8.58 9 13 C7.68 13 6.36 13 5 13 C5 14.32 5 15.64 5 17 C0.71 17 -3.58 17 -8 17 C-8 12.71 -8 8.42 -8 4 C-5.36 4 -2.72 4 0 4 C0 2.68 0 1.36 0 0 Z " fill="#A96C39" transform="translate(207,14)"/>
<path d="M0 0 C19.563299 -1.3122956 19.563299 -1.3122956 25.2421875 1.74609375 C30 6.63461538 30 6.63461538 30 9 C20.1 9 10.2 9 0 9 C0 6.03 0 3.06 0 0 Z " fill="#85582F" transform="translate(27,123)"/>
<path d="M0 0 C8.96838563 7.68718768 8.96838563 7.68718768 9.22705078 10.24658203 C9.21134033 11.61339111 9.21134033 11.61339111 9.1953125 13.0078125 C9.18564453 14.48701172 9.18564453 14.48701172 9.17578125 15.99609375 C9.15902344 17.02863281 9.14226563 18.06117187 9.125 19.125 C9.11597656 20.16527344 9.10695313 21.20554687 9.09765625 22.27734375 C9.07403747 24.85179092 9.04110149 27.42578212 9 30 C6.03 30 3.06 30 0 30 C0 20.1 0 10.2 0 0 Z " fill="#734C29" transform="translate(3,78)"/>
<path d="M0 0 C9.57 0 19.14 0 29 0 C29 2.97 29 5.94 29 9 C10.22681623 10.22433807 10.22681623 10.22433807 4.82421875 7.25390625 C0 2.30621572 0 2.30621572 0 0 Z " fill="#7B502B" transform="translate(174,3)"/>
<path d="M0 0 C4.29 0 8.58 0 13 0 C13 4.29 13 8.58 13 13 C10.36 13 7.72 13 5 13 C5 13.99 5 14.98 5 16 C2.36 16 -0.28 16 -3 16 C-3 13.36 -3 10.72 -3 8 C-2.01 8 -1.02 8 0 8 C0 5.36 0 2.72 0 0 Z " fill="#AB713D" transform="translate(18,104)"/>
<path d="M0 0 C4.29 0 8.58 0 13 0 C13 4.29 13 8.58 13 13 C8.71 13 4.42 13 0 13 C0 8.71 0 4.42 0 0 Z " fill="#F5DB9B" transform="translate(199,104)"/>
<path d="M0 0 C4.29 0 8.58 0 13 0 C13 4.29 13 8.58 13 13 C8.71 13 4.42 13 0 13 C0 8.71 0 4.42 0 0 Z " fill="#B67840" transform="translate(18,18)"/>
<path d="M0 0 C4.23567424 0.5059002 6.35934285 2.8935328 9.3125 5.8125 C10.66794922 7.12154297 10.66794922 7.12154297 12.05078125 8.45703125 C14 11 14 11 13.88671875 13.23046875 C12.87658172 15.24629286 11.58645803 16.41354197 10 18 C9.855625 18.66 9.71125 19.32 9.5625 20 C8.78651825 22.75904621 7.4010917 23.54479291 5 25 C3.33333333 25 1.66666667 25 0 25 C0.63594662 21.31150959 0.63594662 21.31150959 2.515625 19.703125 C5.10459811 16.73261901 4.45554566 13.36818547 4.37109375 9.59765625 C4.19774145 6.81327294 4.19774145 6.81327294 2 4.5 C1.34 4.005 0.68 3.51 0 3 C0 2.01 0 1.02 0 0 Z " fill="#EBCD8C" transform="translate(216,55)"/>
<path d="M0 0 C-0.57344937 2.86724686 -0.8614515 3.8614515 -3 6 C-3.35870143 9.02304308 -3.35870143 9.02304308 -3.3125 12.4375 C-3.32925781 13.59121094 -3.34601562 14.74492188 -3.36328125 15.93359375 C-2.96261629 19.31555064 -2.4671973 19.87130998 0 22 C0 22.99 0 23.98 0 25 C-4.23567424 24.4940998 -6.35934285 22.1064672 -9.3125 19.1875 C-10.21613281 18.31480469 -11.11976562 17.44210938 -12.05078125 16.54296875 C-14 14 -14 14 -14.09765625 12.00390625 C-12.51617432 9.11671683 -10.45954219 7.06424182 -8.125 4.75 C-7.24070312 3.85796875 -6.35640625 2.9659375 -5.4453125 2.046875 C-3 0 -3 0 0 0 Z " fill="#EFD697" transform="translate(14,55)"/>
<path d="M0 0 C1.65 0 3.3 0 5 0 C5.14522934 3.91627663 5.23404757 7.83186153 5.3125 11.75 C5.35439453 12.86117187 5.39628906 13.97234375 5.43945312 15.1171875 C5.45556641 16.18710937 5.47167969 17.25703125 5.48828125 18.359375 C5.51446533 19.34389648 5.54064941 20.32841797 5.56762695 21.34277344 C5 24 5 24 0 28 C0 18.76 0 9.52 0 0 Z " fill="#D29151" transform="translate(5,27)"/>
<path d="M0 0 C5.94 0 11.88 0 18 0 C18 5.61 18 11.22 18 17 C16.68 17 15.36 17 14 17 C14 12.71 14 8.42 14 4 C9.38 4 4.76 4 0 4 C0 2.68 0 1.36 0 0 Z " fill="#BB7239" transform="translate(207,5)"/>
<path d="M0 0 C1.32 0 2.64 0 4 0 C4 5.94 4 11.88 4 18 C-1.61 18 -7.22 18 -13 18 C-12.67 16.68 -12.34 15.36 -12 14 C-8.04 14 -4.08 14 0 14 C0 9.38 0 4.76 0 0 Z " fill="#E8B774" transform="translate(221,112)"/>
<path d="M0 0 C1.03165283 0.02094727 2.06330566 0.04189453 3.1262207 0.06347656 C4.80361328 0.0828125 4.80361328 0.0828125 6.51489258 0.10253906 C7.68213867 0.13605469 8.84938477 0.16957031 10.05200195 0.20410156 C11.23084961 0.22214844 12.40969727 0.24019531 13.62426758 0.25878906 C16.53849121 0.30598297 19.45109226 0.37181079 22.36450195 0.45410156 C22.36450195 1.77410156 22.36450195 3.09410156 22.36450195 4.45410156 C13.12450195 4.45410156 3.88450195 4.45410156 -5.63549805 4.45410156 C-2.63549805 0.45410156 -2.63549805 0.45410156 0 0 Z " fill="#E6B06D" transform="translate(181.635498046875,125.5458984375)"/>
<path d="M0 0 C9.24 0 18.48 0 28 0 C25 4 25 4 22.36450195 4.45410156 C20.81702271 4.42268066 20.81702271 4.42268066 19.23828125 4.390625 C18.12001953 4.37773437 17.00175781 4.36484375 15.84960938 4.3515625 C14.68236328 4.31804688 13.51511719 4.28453125 12.3125 4.25 C11.13365234 4.23195313 9.95480469 4.21390625 8.74023438 4.1953125 C5.82601074 4.14811859 2.91340969 4.08229077 0 4 C0 2.68 0 1.36 0 0 Z " fill="#F5D893" transform="translate(27,5)"/>
<path d="M0 0 C0 8.91 0 17.82 0 27 C-1.32 27 -2.64 27 -4 27 C-4.08696177 23.06263877 -4.14037835 19.12552372 -4.1875 15.1875 C-4.21263672 14.06794922 -4.23777344 12.94839844 -4.26367188 11.79492188 C-4.27333984 10.72177734 -4.28300781 9.64863281 -4.29296875 8.54296875 C-4.3086792 7.55321045 -4.32438965 6.56345215 -4.34057617 5.54370117 C-4 3 -4 3 -2.54418945 1.15356445 C-1 0 -1 0 0 0 Z " fill="#F6DF9F" transform="translate(225,81)"/>
<path d="M0 0 C0.66 0 1.32 0 2 0 C2 5.94 2 11.88 2 18 C7.94 18 13.88 18 20 18 C20 18.66 20 19.32 20 20 C13.4 20 6.8 20 0 20 C0 13.4 0 6.8 0 0 Z " fill="#000000" transform="translate(3,112)"/>
<path d="M0 0 C6.6 0 13.2 0 20 0 C20 0.66 20 1.32 20 2 C14.06 2 8.12 2 2 2 C2 7.94 2 13.88 2 20 C1.34 20 0.68 20 0 20 C0 13.4 0 6.8 0 0 Z " fill="#000000" transform="translate(3,3)"/>
<path d="M0 0 C0.66 0 1.32 0 2 0 C2 6.6 2 13.2 2 20 C-4.27 20 -10.54 20 -17 20 C-17 19.34 -17 18.68 -17 18 C-11.39 18 -5.78 18 0 18 C0 12.06 0 6.12 0 0 Z " fill="#000000" transform="translate(225,112)"/>
<path d="M0 0 C6.6 0 13.2 0 20 0 C20 6.27 20 12.54 20 19 C19.34 19 18.68 19 18 19 C18 13.39 18 7.78 18 2 C12.06 2 6.12 2 0 2 C0 1.34 0 0.68 0 0 Z " fill="#000000" transform="translate(207,3)"/>
<path d="M0 0 C0.99 0 1.98 0 3 0 C3 4.62 3 9.24 3 14 C-1.29 14 -5.58 14 -10 14 C-10 13.01 -10 12.02 -10 11 C-6.7 11 -3.4 11 0 11 C0 7.37 0 3.74 0 0 Z " fill="#000000" transform="translate(218,112)"/>
<path d="M0 0 C4.62 0 9.24 0 14 0 C14 4.29 14 8.58 14 13 C13.01 13 12.02 13 11 13 C11 9.7 11 6.4 11 3 C7.37 3 3.74 3 0 3 C0 2.01 0 1.02 0 0 Z " fill="#000000" transform="translate(207,9)"/>
<path d="M0 0 C2.24658203 -0.34057617 2.24658203 -0.34057617 5.0078125 -0.29296875 C5.99394531 -0.28330078 6.98007813 -0.27363281 7.99609375 -0.26367188 C9.02863281 -0.23853516 10.06117188 -0.21339844 11.125 -0.1875 C12.68541016 -0.16719727 12.68541016 -0.16719727 14.27734375 -0.14648438 C16.85207627 -0.11105228 19.4257833 -0.06165221 22 0 C22 0.99 22 1.98 22 3 C14.08 3 6.16 3 -2 3 C-1.34 2.01 -0.68 1.02 0 0 Z " fill="#000000" transform="translate(182,123)"/>
<path d="M0 0 C3.62484999 -0.08681476 7.24943443 -0.14032721 10.875 -0.1875 C12.42380859 -0.22520508 12.42380859 -0.22520508 14.00390625 -0.26367188 C14.99003906 -0.27333984 15.97617187 -0.28300781 16.9921875 -0.29296875 C17.90339355 -0.3086792 18.81459961 -0.32438965 19.75341797 -0.34057617 C20.49479004 -0.22818604 21.23616211 -0.1157959 22 0 C22.66 0.99 23.32 1.98 24 3 C16.08 3 8.16 3 0 3 C0 2.01 0 1.02 0 0 Z " fill="#000000" transform="translate(27,123)"/>
<path d="M0 0 C7.92 0 15.84 0 24 0 C23.01 1.485 23.01 1.485 22 3 C19.75341797 3.34057617 19.75341797 3.34057617 16.9921875 3.29296875 C16.00605469 3.28330078 15.01992188 3.27363281 14.00390625 3.26367188 C12.97136719 3.23853516 11.93882813 3.21339844 10.875 3.1875 C9.31458984 3.16719727 9.31458984 3.16719727 7.72265625 3.14648438 C5.14792373 3.11105228 2.5742167 3.06165221 0 3 C0 2.01 0 1.02 0 0 Z " fill="#000000" transform="translate(27,9)"/>
<path d="M0 0 C0.33 0 0.66 0 1 0 C1 7.59 1 15.18 1 23 C0.01 23 -0.98 23 -2 23 C-2.05789006 19.54173658 -2.09355821 16.08359707 -2.125 12.625 C-2.14175781 11.64015625 -2.15851563 10.6553125 -2.17578125 9.640625 C-2.18222656 8.69960937 -2.18867188 7.75859375 -2.1953125 6.7890625 C-2.20578613 5.91975098 -2.21625977 5.05043945 -2.22705078 4.15478516 C-2 2 -2 2 0 0 Z " fill="#000000" transform="translate(220,85)"/>
<path d="M0 0 C0.99 0 1.98 0 3 0 C3 7.59 3 15.18 3 23 C2.01 22.34 1.02 21.68 0 21 C-0.34057617 18.84521484 -0.34057617 18.84521484 -0.29296875 16.2109375 C-0.2784668 14.79941406 -0.2784668 14.79941406 -0.26367188 13.359375 C-0.23853516 12.37453125 -0.21339844 11.3896875 -0.1875 10.375 C-0.17396484 9.38242187 -0.16042969 8.38984375 -0.14648438 7.3671875 C-0.11105743 4.91091928 -0.06166196 2.45572715 0 0 Z " fill="#000000" transform="translate(218,27)"/>
<path d="M0 0 C7.59 0 15.18 0 23 0 C23 0.99 23 1.98 23 3 C19.541824 3.0868329 16.08392656 3.14033282 12.625 3.1875 C11.64015625 3.21263672 10.6553125 3.23777344 9.640625 3.26367188 C8.22910156 3.27817383 8.22910156 3.27817383 6.7890625 3.29296875 C5.91975098 3.3086792 5.05043945 3.32438965 4.15478516 3.34057617 C3.44370605 3.22818604 2.73262695 3.1157959 2 3 C1.34 2.01 0.68 1.02 0 0 Z " fill="#000000" transform="translate(180,9)"/>
<path d="M0 0 C2.64 0 5.28 0 8 0 C8 2.64 8 5.28 8 8 C5.36 8 2.72 8 0 8 C0 5.36 0 2.72 0 0 Z " fill="#B87A41" transform="translate(202,106)"/>
<path d="M0 0 C0.66 0 1.32 0 2 0 C2 3.63 2 7.26 2 11 C5.63 11 9.26 11 13 11 C13 11.99 13 12.98 13 14 C8.71 14 4.42 14 0 14 C0 9.38 0 4.76 0 0 Z " fill="#000000" transform="translate(10,112)"/>
<path d="M0 0 C4.29 0 8.58 0 13 0 C13 0.99 13 1.98 13 3 C9.37 3 5.74 3 2 3 C2 6.63 2 10.26 2 14 C1.34 14 0.68 14 0 14 C0 9.38 0 4.76 0 0 Z " fill="#000000" transform="translate(10,9)"/>
<path d="M0 0 C2.97 0 5.94 0 9 0 C9 2.64 9 5.28 9 8 C7.68 8 6.36 8 5 8 C5 6.68 5 5.36 5 4 C3.35 4 1.7 4 0 4 C0 2.68 0 1.36 0 0 Z " fill="#000000" transform="translate(207,14)"/>
<path d="M0 0 C2.64 0 5.28 0 8 0 C8 1.32 8 2.64 8 4 C6.35 4 4.7 4 3 4 C3 5.65 3 7.3 3 9 C2.01 9 1.02 9 0 9 C0 6.03 0 3.06 0 0 Z " fill="#000000" transform="translate(15,14)"/>
<path d="M0 0 C1.4384798 0.06423833 2.87666999 0.14163547 4.3125 0.25 C2.25 2.8125 2.25 2.8125 -0.6875 5.25 C-4.5 5.0625 -4.5 5.0625 -7.6875 4.25 C-5.84004374 0.30875998 -4.09551026 -0.02575793 0 0 Z " fill="#E8BB79" transform="translate(63.6875,4.75)"/>
<path d="M0 0 C2.97 0 5.94 0 9 0 C9 1.65 9 3.3 9 5 C6.03 5 3.06 5 0 5 C0 3.35 0 1.7 0 0 Z " fill="#D08A4A" transform="translate(218,22)"/>
<path d="M0 0 C1.32 0 2.64 0 4 0 C4 2.64 4 5.28 4 8 C1.36 8 -1.28 8 -4 8 C-4 7.01 -4 6.02 -4 5 C-2.68 5 -1.36 5 0 5 C0 3.35 0 1.7 0 0 Z " fill="#000000" transform="translate(212,112)"/>
<path d="M0 0 C1.98738098 0.01761863 3.97253109 0.16698176 5.953125 0.33203125 C5.015625 2.83203125 5.015625 2.83203125 2.953125 5.33203125 C-0.08503758 5.78991036 -2.99613285 5.61983711 -6.046875 5.33203125 C-3.15469741 0.51173527 -3.15469741 0.51173527 0 0 Z " fill="#000000" transform="translate(164.046875,129.66796875)"/>
<path d="M0 0 C3.05074215 -0.28780586 5.96183742 -0.45787911 9 0 C11.0625 2.5 11.0625 2.5 12 5 C6.71502591 5.44041451 6.71502591 5.44041451 4 5 C1.5 2.5 1.5 2.5 0 0 Z " fill="#000000" transform="translate(158,0)"/>
<path d="M0 0 C5.28497409 -0.44041451 5.28497409 -0.44041451 8 0 C10.5 2.5 10.5 2.5 12 5 C6.71502591 5.44041451 6.71502591 5.44041451 4 5 C1.5 2.5 1.5 2.5 0 0 Z " fill="#000000" transform="translate(60,130)"/>
<path d="M0 0 C1.98738098 0.01761863 3.97253109 0.16698176 5.953125 0.33203125 C4.453125 2.83203125 4.453125 2.83203125 1.953125 5.33203125 C-0.84826065 5.78645449 -3.18488375 5.57053052 -6.046875 5.33203125 C-3.15469741 0.51173527 -3.15469741 0.51173527 0 0 Z " fill="#000000" transform="translate(66.046875,-0.33203125)"/>
<path d="M0 0 C0.99 0 1.98 0 3 0 C3 1.65 3 3.3 3 5 C4.65 5 6.3 5 8 5 C8 5.99 8 6.98 8 8 C5.36 8 2.72 8 0 8 C0 5.36 0 2.72 0 0 Z " fill="#000000" transform="translate(15,112)"/>
<path d="M0 0 C1.32 0 2.64 0 4 0 C4 2.97 4 5.94 4 9 C2.68 9 1.36 9 0 9 C0 6.03 0 3.06 0 0 Z " fill="#F7DB96" transform="translate(23,123)"/>
<path d="M0 0 C2.97 0 5.94 0 9 0 C9 1.32 9 2.64 9 4 C6.03 4 3.06 4 0 4 C0 2.68 0 1.36 0 0 Z " fill="#E3A764" transform="translate(3,108)"/>
<path d="M0 0 C0.33 0 0.66 0 1 0 C1 3.63 1 7.26 1 11 C-0.98 9.35 -2.96 7.7 -5 6 C-3.35830472 3.97945196 -1.69088222 1.97956942 0 0 Z " fill="#CA8647" transform="translate(9,62)"/>
<path d="M0 0 C1.32 0 2.64 0 4 0 C4 2.97 4 5.94 4 9 C2.68 9 1.36 9 0 9 C0 6.03 0 3.06 0 0 Z " fill="#EACB89" transform="translate(203,3)"/>
<path d="M0 0 C1.32 0 2.64 0 4 0 C4 2.97 4 5.94 4 9 C2.68 9 1.36 9 0 9 C0 6.03 0 3.06 0 0 Z " fill="#DBAF73" transform="translate(23,3)"/>
<path d="M0 0 C2.97 0.495 2.97 0.495 6 1 C6 2.65 6 4.3 6 6 C4.02 6 2.04 6 0 6 C0 4.02 0 2.04 0 0 Z " fill="#DAA968" transform="translate(203,21)"/>
<path d="M0 0 C2.64 0 5.28 0 8 0 C8 1.32 8 2.64 8 4 C5.36 4 2.72 4 0 4 C0 2.68 0 1.36 0 0 Z " fill="#DAAA69" transform="translate(106,126)"/>
<path d="M0 0 C5.37305699 -0.35233161 5.37305699 -0.35233161 8 0 C10 2 10 2 11 4 C5.62694301 4.35233161 5.62694301 4.35233161 3 4 C1 2 1 2 0 0 Z " fill="#D08A4A" transform="translate(56,126)"/>
<path d="M0 0 C1.98 0 3.96 0 6 0 C6 1.98 6 3.96 6 6 C4.68 6 3.36 6 2 6 C2 5.34 2 4.68 2 4 C1.34 4 0.68 4 0 4 C0 2.68 0 1.36 0 0 Z " fill="#ECBF7B" transform="translate(21,108)"/>
<path d="M0 0 C1.32 0 2.64 0 4 0 C4 1.98 4 3.96 4 6 C2.02 6 0.04 6 -2 6 C-2 4.68 -2 3.36 -2 2 C-1.34 2 -0.68 2 0 2 C0 1.34 0 0.68 0 0 Z " fill="#F2DB9C" transform="translate(23,21)"/>
<path d="M0 0 C5.37305699 -0.35233161 5.37305699 -0.35233161 8 0 C10 2 10 2 11 4 C5.62694301 4.35233161 5.62694301 4.35233161 3 4 C1 2 1 2 0 0 Z " fill="#DBAF72" transform="translate(163,5)"/>
<path d="M0 0 C2.64 0 5.28 0 8 0 C8 0.66 8 1.32 8 2 C6.02 2 4.04 2 2 2 C2 3.98 2 5.96 2 8 C1.34 8 0.68 8 0 8 C0 5.36 0 2.72 0 0 Z " fill="#000000" transform="translate(202,106)"/>
<path d="M0 0 C1.32 0 2.64 0 4 0 C4 1.65 4 3.3 4 5 C2.68 5 1.36 5 0 5 C0 3.35 0 1.7 0 0 Z " fill="#D29251" transform="translate(212,22)"/>
</svg>
